<svg width="142" height="70" viewBox="0 0 142 70" fill="none" xmlns="http://www.w3.org/2000/svg">
<path d="M2.33523 0.272727L4.4446 6.90341H4.52557L6.6392 0.272727H8.68466L5.67614 9H3.2983L0.285511 0.272727H2.33523ZM11.9201 9.12784C11.2582 9.12784 10.6857 8.98722 10.2028 8.70597C9.72266 8.42187 9.35192 8.02699 9.09055 7.52131C8.82919 7.01278 8.69851 6.4233 8.69851 5.75284C8.69851 5.0767 8.82919 4.4858 9.09055 3.98011C9.35192 3.47159 9.72266 3.0767 10.2028 2.79545C10.6857 2.51136 11.2582 2.36932 11.9201 2.36932C12.582 2.36932 13.1531 2.51136 13.6332 2.79545C14.1161 3.0767 14.4883 3.47159 14.7496 3.98011C15.011 4.4858 15.1417 5.0767 15.1417 5.75284C15.1417 6.4233 15.011 7.01278 14.7496 7.52131C14.4883 8.02699 14.1161 8.42187 13.6332 8.70597C13.1531 8.98722 12.582 9.12784 11.9201 9.12784ZM11.9286 7.72159C12.2298 7.72159 12.4812 7.63636 12.6829 7.46591C12.8846 7.29261 13.0366 7.05682 13.1388 6.75852C13.244 6.46023 13.2965 6.12074 13.2965 5.74006C13.2965 5.35938 13.244 5.01989 13.1388 4.72159C13.0366 4.4233 12.8846 4.1875 12.6829 4.0142C12.4812 3.84091 12.2298 3.75426 11.9286 3.75426C11.6246 3.75426 11.369 3.84091 11.1616 4.0142C10.957 4.1875 10.8022 4.4233 10.6971 4.72159C10.5948 5.01989 10.5437 5.35938 10.5437 5.74006C10.5437 6.12074 10.5948 6.46023 10.6971 6.75852C10.8022 7.05682 10.957 7.29261 11.1616 7.46591C11.369 7.63636 11.6246 7.72159 11.9286 7.72159ZM19.2795 9.12784C18.6175 9.12784 18.0451 8.98722 17.5621 8.70597C17.082 8.42187 16.7113 8.02699 16.4499 7.52131C16.1886 7.01278 16.0579 6.4233 16.0579 5.75284C16.0579 5.0767 16.1886 4.4858 16.4499 3.98011C16.7113 3.47159 17.082 3.0767 17.5621 2.79545C18.0451 2.51136 18.6175 2.36932 19.2795 2.36932C19.9414 2.36932 20.5124 2.51136 20.9925 2.79545C21.4755 3.0767 21.8477 3.47159 22.109 3.98011C22.3704 4.4858 22.5011 5.0767 22.5011 5.75284C22.5011 6.4233 22.3704 7.01278 22.109 7.52131C21.8477 8.02699 21.4755 8.42187 20.9925 8.70597C20.5124 8.98722 19.9414 9.12784 19.2795 9.12784ZM19.288 7.72159C19.5891 7.72159 19.8406 7.63636 20.0423 7.46591C20.244 7.29261 20.396 7.05682 20.4982 6.75852C20.6033 6.46023 20.6559 6.12074 20.6559 5.74006C20.6559 5.35938 20.6033 5.01989 20.4982 4.72159C20.396 4.4233 20.244 4.1875 20.0423 4.0142C19.8406 3.84091 19.5891 3.75426 19.288 3.75426C18.984 3.75426 18.7283 3.84091 18.521 4.0142C18.3164 4.1875 18.1616 4.4233 18.0565 4.72159C17.9542 5.01989 17.9031 5.35938 17.9031 5.74006C17.9031 6.12074 17.9542 6.46023 18.0565 6.75852C18.1616 7.05682 18.3164 7.29261 18.521 7.46591C18.7283 7.63636 18.984 7.72159 19.288 7.72159ZM26.0934 9.10653C25.5962 9.10653 25.146 8.97869 24.7425 8.72301C24.342 8.46449 24.0238 8.08523 23.788 7.58523C23.555 7.08239 23.4386 6.46591 23.4386 5.7358C23.4386 4.9858 23.5593 4.36222 23.8008 3.86506C24.0423 3.36506 24.3633 2.99148 24.7638 2.74432C25.1673 2.49432 25.609 2.36932 26.0891 2.36932C26.4556 2.36932 26.761 2.43182 27.0053 2.55682C27.2525 2.67898 27.4513 2.83239 27.6019 3.01705C27.7553 3.19886 27.8718 3.37784 27.9513 3.55398H28.0067V0.272727H29.8178V9H28.0281V7.9517H27.9513C27.8661 8.13352 27.7454 8.31392 27.5891 8.4929C27.4357 8.66903 27.2354 8.81534 26.9883 8.93182C26.744 9.0483 26.4457 9.10653 26.0934 9.10653ZM26.6687 7.66193C26.9613 7.66193 27.2085 7.58239 27.4102 7.4233C27.6147 7.26136 27.771 7.03551 27.8789 6.74574C27.9897 6.45597 28.0451 6.11648 28.0451 5.72727C28.0451 5.33807 27.9911 5 27.8832 4.71307C27.7752 4.42614 27.619 4.20455 27.4144 4.0483C27.2099 3.89205 26.9613 3.81392 26.6687 3.81392C26.3704 3.81392 26.119 3.89489 25.9144 4.05682C25.7099 4.21875 25.555 4.44318 25.4499 4.73011C25.3448 5.01705 25.2923 5.34943 25.2923 5.72727C25.2923 6.10795 25.3448 6.4446 25.4499 6.73722C25.5579 7.02699 25.7127 7.25426 25.9144 7.41903C26.119 7.58097 26.3704 7.66193 26.6687 7.66193ZM34.2678 9.12784C33.6058 9.12784 33.0334 8.98722 32.5504 8.70597C32.0703 8.42187 31.6996 8.02699 31.4382 7.52131C31.1768 7.01278 31.0462 6.4233 31.0462 5.75284C31.0462 5.0767 31.1768 4.4858 31.4382 3.98011C31.6996 3.47159 32.0703 3.0767 32.5504 2.79545C33.0334 2.51136 33.6058 2.36932 34.2678 2.36932C34.9297 2.36932 35.5007 2.51136 35.9808 2.79545C36.4638 3.0767 36.8359 3.47159 37.0973 3.98011C37.3587 4.4858 37.4893 5.0767 37.4893 5.75284C37.4893 6.4233 37.3587 7.01278 37.0973 7.52131C36.8359 8.02699 36.4638 8.42187 35.9808 8.70597C35.5007 8.98722 34.9297 9.12784 34.2678 9.12784ZM34.2763 7.72159C34.5774 7.72159 34.8288 7.63636 35.0305 7.46591C35.2322 7.29261 35.3842 7.05682 35.4865 6.75852C35.5916 6.46023 35.6442 6.12074 35.6442 5.74006C35.6442 5.35938 35.5916 5.01989 35.4865 4.72159C35.3842 4.4233 35.2322 4.1875 35.0305 4.0142C34.8288 3.84091 34.5774 3.75426 34.2763 3.75426C33.9723 3.75426 33.7166 3.84091 33.5092 4.0142C33.3047 4.1875 33.1499 4.4233 33.0447 4.72159C32.9425 5.01989 32.8913 5.35938 32.8913 5.74006C32.8913 6.12074 32.9425 6.46023 33.0447 6.75852C33.1499 7.05682 33.3047 7.29261 33.5092 7.46591C33.7166 7.63636 33.9723 7.72159 34.2763 7.72159ZM41.6271 9.12784C40.9652 9.12784 40.3928 8.98722 39.9098 8.70597C39.4297 8.42187 39.0589 8.02699 38.7976 7.52131C38.5362 7.01278 38.4055 6.4233 38.4055 5.75284C38.4055 5.0767 38.5362 4.4858 38.7976 3.98011C39.0589 3.47159 39.4297 3.0767 39.9098 2.79545C40.3928 2.51136 40.9652 2.36932 41.6271 2.36932C42.2891 2.36932 42.8601 2.51136 43.3402 2.79545C43.8232 3.0767 44.1953 3.47159 44.4567 3.98011C44.718 4.4858 44.8487 5.0767 44.8487 5.75284C44.8487 6.4233 44.718 7.01278 44.4567 7.52131C44.1953 8.02699 43.8232 8.42187 43.3402 8.70597C42.8601 8.98722 42.2891 9.12784 41.6271 9.12784ZM41.6357 7.72159C41.9368 7.72159 42.1882 7.63636 42.3899 7.46591C42.5916 7.29261 42.7436 7.05682 42.8459 6.75852C42.951 6.46023 43.0036 6.12074 43.0036 5.74006C43.0036 5.35938 42.951 5.01989 42.8459 4.72159C42.7436 4.4233 42.5916 4.1875 42.3899 4.0142C42.1882 3.84091 41.9368 3.75426 41.6357 3.75426C41.3317 3.75426 41.076 3.84091 40.8686 4.0142C40.6641 4.1875 40.5092 4.4233 40.4041 4.72159C40.3018 5.01989 40.2507 5.35938 40.2507 5.74006C40.2507 6.12074 40.3018 6.46023 40.4041 6.75852C40.5092 7.05682 40.6641 7.29261 40.8686 7.46591C41.076 7.63636 41.3317 7.72159 41.6357 7.72159ZM3.97159 20.2727V29H2.91477V21.3807H2.86364L0.732955 22.7955V21.7216L2.91477 20.2727H3.97159ZM9.4304 29.1193C8.8679 29.1193 8.36648 29.0227 7.92614 28.8295C7.48864 28.6364 7.14063 28.3679 6.8821 28.0241C6.62642 27.6776 6.48722 27.2756 6.46449 26.8182H7.53835C7.56108 27.0994 7.65767 27.3423 7.82812 27.5469C7.99858 27.7486 8.22159 27.9048 8.49716 28.0156C8.77273 28.1264 9.07813 28.1818 9.41335 28.1818C9.78835 28.1818 10.1207 28.1165 10.4105 27.9858C10.7003 27.8551 10.9276 27.6733 11.0923 27.4403C11.2571 27.2074 11.3395 26.9375 11.3395 26.6307C11.3395 26.3097 11.2599 26.027 11.1009 25.7827C10.9418 25.5355 10.7088 25.3423 10.402 25.2031C10.0952 25.0639 9.72017 24.9943 9.27699 24.9943H8.57812V24.0568H9.27699C9.62358 24.0568 9.92756 23.9943 10.1889 23.8693C10.4531 23.7443 10.6591 23.5682 10.8068 23.3409C10.9574 23.1136 11.0327 22.8466 11.0327 22.5398C11.0327 22.2443 10.9673 21.9872 10.8366 21.7685C10.706 21.5497 10.5213 21.3793 10.2827 21.2571C10.0469 21.1349 9.76847 21.0739 9.44744 21.0739C9.14631 21.0739 8.86222 21.1293 8.59517 21.2401C8.33097 21.348 8.11506 21.5057 7.94744 21.7131C7.77983 21.9176 7.68892 22.1648 7.67472 22.4545H6.65199C6.66903 21.9972 6.80682 21.5966 7.06534 21.2528C7.32386 20.9062 7.66193 20.6364 8.07955 20.4432C8.5 20.25 8.96165 20.1534 9.46449 20.1534C10.0043 20.1534 10.4673 20.2628 10.8537 20.4815C11.2401 20.6974 11.5369 20.983 11.7443 21.3381C11.9517 21.6932 12.0554 22.0767 12.0554 22.4886C12.0554 22.9801 11.9261 23.3991 11.6676 23.7457C11.4119 24.0923 11.0639 24.3324 10.6236 24.4659V24.5341C11.1747 24.625 11.6051 24.8594 11.9148 25.2372C12.2244 25.6122 12.3793 26.0767 12.3793 26.6307C12.3793 27.1051 12.25 27.5312 11.9915 27.9091C11.7358 28.2841 11.3864 28.5795 10.9432 28.7955C10.5 29.0114 9.99574 29.1193 9.4304 29.1193ZM14.3949 29L18.2983 21.2784V21.2102H13.7983V20.2727H19.3892V21.2614L15.5028 29H14.3949ZM30.4719 23C30.3782 22.7131 30.2546 22.456 30.1012 22.2287C29.9506 21.9986 29.7702 21.8026 29.56 21.6406C29.3526 21.4787 29.1168 21.3551 28.8526 21.2699C28.5884 21.1847 28.2987 21.142 27.9833 21.142C27.4663 21.142 26.9961 21.2756 26.5728 21.5426C26.1495 21.8097 25.8129 22.2031 25.5629 22.723C25.3129 23.2429 25.1879 23.8807 25.1879 24.6364C25.1879 25.392 25.3143 26.0298 25.5671 26.5497C25.82 27.0696 26.1623 27.4631 26.5941 27.7301C27.0259 27.9972 27.5117 28.1307 28.0515 28.1307C28.5515 28.1307 28.9918 28.0241 29.3725 27.8111C29.756 27.5952 30.0543 27.2912 30.2674 26.8991C30.4833 26.5043 30.5913 26.0398 30.5913 25.5057L30.9151 25.5739H28.2901V24.6364H31.614V25.5739C31.614 26.2926 31.4606 26.9176 31.1538 27.4489C30.8498 27.9801 30.4293 28.392 29.8924 28.6847C29.3583 28.9744 28.7447 29.1193 28.0515 29.1193C27.2788 29.1193 26.5998 28.9375 26.0146 28.5739C25.4322 28.2102 24.9776 27.6932 24.6509 27.0227C24.3271 26.3523 24.1651 25.5568 24.1651 24.6364C24.1651 23.946 24.2575 23.3253 24.4421 22.7741C24.6296 22.2202 24.8938 21.7486 25.2347 21.3594C25.5756 20.9702 25.979 20.6719 26.445 20.4645C26.9109 20.2571 27.4237 20.1534 27.9833 20.1534C28.4435 20.1534 28.8725 20.223 29.2702 20.3622C29.6708 20.4986 30.0273 20.6932 30.3398 20.946C30.6552 21.196 30.918 21.4957 31.1282 21.8452C31.3384 22.1918 31.4833 22.5767 31.5629 23H30.4719ZM34.2933 20.2727V29H33.2876V20.2727H34.2933ZM38.0614 29.1534C37.6467 29.1534 37.2702 29.0753 36.9322 28.919C36.5941 28.7599 36.3256 28.5312 36.1268 28.233C35.9279 27.9318 35.8285 27.5682 35.8285 27.142C35.8285 26.767 35.9023 26.4631 36.0501 26.2301C36.1978 25.9943 36.3952 25.8097 36.6424 25.6761C36.8896 25.5426 37.1623 25.4432 37.4606 25.3778C37.7617 25.3097 38.0643 25.2557 38.3683 25.2159C38.766 25.1648 39.0884 25.1264 39.3356 25.1009C39.5856 25.0724 39.7674 25.0256 39.881 24.9602C39.9975 24.8949 40.0558 24.7812 40.0558 24.6193V24.5852C40.0558 24.1648 39.9407 23.8381 39.7106 23.6051C39.4833 23.3722 39.1381 23.2557 38.6751 23.2557C38.195 23.2557 37.8185 23.3608 37.5458 23.571C37.2731 23.7812 37.0813 24.0057 36.9705 24.2443L36.016 23.9034C36.1864 23.5057 36.4137 23.196 36.6978 22.9744C36.9847 22.75 37.2972 22.5937 37.6353 22.5057C37.9762 22.4148 38.3114 22.3693 38.641 22.3693C38.8512 22.3693 39.0927 22.3949 39.3654 22.446C39.641 22.4943 39.9066 22.5952 40.1623 22.7486C40.4208 22.902 40.6353 23.1335 40.8058 23.4432C40.9762 23.7528 41.0614 24.1676 41.0614 24.6875V29H40.0558V28.1136H40.0046C39.9364 28.2557 39.8228 28.4077 39.6637 28.5696C39.5046 28.7315 39.293 28.8693 39.0288 28.983C38.7646 29.0966 38.4421 29.1534 38.0614 29.1534ZM38.2148 28.25C38.6126 28.25 38.9478 28.1719 39.2205 28.0156C39.4961 27.8594 39.7035 27.6577 39.8427 27.4105C39.9847 27.1634 40.0558 26.9034 40.0558 26.6307V25.7102C40.0131 25.7614 39.9194 25.8082 39.7745 25.8509C39.6325 25.8906 39.4677 25.9261 39.2802 25.9574C39.0955 25.9858 38.9151 26.0114 38.739 26.0341C38.5657 26.054 38.4251 26.071 38.3171 26.0852C38.0558 26.1193 37.8114 26.1747 37.5842 26.2514C37.3597 26.3253 37.1779 26.4375 37.0387 26.5881C36.9023 26.7358 36.8342 26.9375 36.8342 27.1932C36.8342 27.5426 36.9634 27.8068 37.2219 27.9858C37.4833 28.1619 37.8143 28.25 38.2148 28.25ZM47.5334 23.9205L46.63 24.1761C46.5732 24.0256 46.4893 23.8793 46.3786 23.7372C46.2706 23.5923 46.1229 23.473 45.9354 23.3793C45.7479 23.2855 45.5078 23.2386 45.2152 23.2386C44.8146 23.2386 44.4808 23.331 44.2138 23.5156C43.9496 23.6974 43.8175 23.929 43.8175 24.2102C43.8175 24.4602 43.9084 24.6577 44.0902 24.8026C44.272 24.9474 44.5561 25.0682 44.9425 25.1648L45.9141 25.4034C46.4993 25.5455 46.9354 25.7628 47.2223 26.0554C47.5092 26.3452 47.6527 26.7187 47.6527 27.1761C47.6527 27.5511 47.5447 27.8864 47.3288 28.1818C47.1158 28.4773 46.8175 28.7102 46.4339 28.8807C46.0504 29.0511 45.6044 29.1364 45.0959 29.1364C44.4283 29.1364 43.8757 28.9915 43.4382 28.7017C43.0007 28.4119 42.7237 27.9886 42.6072 27.4318L43.5618 27.1932C43.6527 27.5455 43.8246 27.8097 44.0774 27.9858C44.3331 28.1619 44.6669 28.25 45.0788 28.25C45.5476 28.25 45.9197 28.1506 46.1953 27.9517C46.4737 27.75 46.6129 27.5085 46.6129 27.2273C46.6129 27 46.5334 26.8097 46.3743 26.6562C46.2152 26.5 45.9709 26.3835 45.6413 26.3068L44.5504 26.0511C43.951 25.9091 43.5107 25.6889 43.2294 25.3906C42.951 25.0895 42.8118 24.7131 42.8118 24.2614C42.8118 23.892 42.9155 23.5653 43.1229 23.2812C43.3331 22.9972 43.6186 22.7741 43.9794 22.6122C44.343 22.4503 44.755 22.3693 45.2152 22.3693C45.8629 22.3693 46.3714 22.5114 46.7408 22.7955C47.1129 23.0795 47.3771 23.4545 47.5334 23.9205ZM51.8086 31.5909C51.3228 31.5909 50.9052 31.5284 50.5558 31.4034C50.2063 31.2812 49.9151 31.1193 49.6822 30.9176C49.4521 30.7188 49.2688 30.5057 49.1325 30.2784L49.9336 29.7159C50.0245 29.8352 50.1396 29.9716 50.2788 30.125C50.418 30.2812 50.6083 30.4162 50.8498 30.5298C51.0941 30.6463 51.4137 30.7045 51.8086 30.7045C52.337 30.7045 52.7731 30.5767 53.1168 30.321C53.4606 30.0653 53.6325 29.6648 53.6325 29.1193V27.7898H53.5472C53.4734 27.9091 53.3683 28.0568 53.2319 28.233C53.0984 28.4062 52.9052 28.5611 52.6523 28.6974C52.4023 28.831 52.0643 28.8977 51.6381 28.8977C51.1097 28.8977 50.6353 28.7727 50.2148 28.5227C49.7972 28.2727 49.4663 27.9091 49.2219 27.4318C48.9805 26.9545 48.8597 26.375 48.8597 25.6932C48.8597 25.0227 48.9776 24.4389 49.2134 23.9418C49.4492 23.4418 49.7773 23.0554 50.1978 22.7827C50.6183 22.5071 51.104 22.3693 51.6552 22.3693C52.0813 22.3693 52.4194 22.4403 52.6694 22.5824C52.9222 22.7216 53.1154 22.8807 53.2489 23.0597C53.3853 23.2358 53.4904 23.3807 53.5643 23.4943H53.6665V22.4545H54.6381V29.1875C54.6381 29.75 54.5103 30.2074 54.2546 30.5597C54.0018 30.9148 53.6609 31.1747 53.2319 31.3395C52.8058 31.5071 52.3313 31.5909 51.8086 31.5909ZM51.7745 27.9943C52.1779 27.9943 52.5188 27.902 52.7972 27.7173C53.0756 27.5327 53.2873 27.267 53.4322 26.9205C53.5771 26.5739 53.6495 26.1591 53.6495 25.6761C53.6495 25.2045 53.5785 24.7884 53.4364 24.4276C53.2944 24.0668 53.0842 23.7841 52.8058 23.5795C52.5273 23.375 52.1836 23.2727 51.7745 23.2727C51.3484 23.2727 50.9933 23.3807 50.7092 23.5966C50.4279 23.8125 50.2163 24.1023 50.0742 24.4659C49.935 24.8295 49.8654 25.233 49.8654 25.6761C49.8654 26.1307 49.9364 26.5327 50.0785 26.8821C50.2234 27.2287 50.4364 27.5014 50.7177 27.7003C51.0018 27.8963 51.354 27.9943 51.7745 27.9943ZM59.1381 29.1364C58.5472 29.1364 58.0288 28.9957 57.5827 28.7145C57.1396 28.4332 56.793 28.0398 56.543 27.5341C56.2958 27.0284 56.1722 26.4375 56.1722 25.7614C56.1722 25.0795 56.2958 24.4844 56.543 23.9759C56.793 23.4673 57.1396 23.0724 57.5827 22.7912C58.0288 22.5099 58.5472 22.3693 59.1381 22.3693C59.729 22.3693 60.2461 22.5099 60.6893 22.7912C61.1353 23.0724 61.4819 23.4673 61.729 23.9759C61.979 24.4844 62.104 25.0795 62.104 25.7614C62.104 26.4375 61.979 27.0284 61.729 27.5341C61.4819 28.0398 61.1353 28.4332 60.6893 28.7145C60.2461 28.9957 59.729 29.1364 59.1381 29.1364ZM59.1381 28.233C59.587 28.233 59.9563 28.1179 60.2461 27.8878C60.5359 27.6577 60.7504 27.3551 60.8896 26.9801C61.0288 26.6051 61.0984 26.1989 61.0984 25.7614C61.0984 25.3239 61.0288 24.9162 60.8896 24.5384C60.7504 24.1605 60.5359 23.8551 60.2461 23.6222C59.9563 23.3892 59.587 23.2727 59.1381 23.2727C58.6893 23.2727 58.32 23.3892 58.0302 23.6222C57.7404 23.8551 57.5259 24.1605 57.3867 24.5384C57.2475 24.9162 57.1779 25.3239 57.1779 25.7614C57.1779 26.1989 57.2475 26.6051 57.3867 26.9801C57.5259 27.3551 57.7404 27.6577 58.0302 27.8878C58.32 28.1179 58.6893 28.233 59.1381 28.233ZM64.8995 29L62.9052 22.4545H63.962L65.3768 27.4659H65.445L66.8427 22.4545H67.9165L69.2972 27.4489H69.3654L70.7802 22.4545H71.837L69.8427 29H68.854L67.4222 23.9716H67.32L65.8881 29H64.8995ZM81.4506 22.4545C81.3995 22.0227 81.1921 21.6875 80.8285 21.4489C80.4648 21.2102 80.0188 21.0909 79.4904 21.0909C79.104 21.0909 78.766 21.1534 78.4762 21.2784C78.1893 21.4034 77.9648 21.5753 77.8029 21.794C77.6438 22.0128 77.5643 22.2614 77.5643 22.5398C77.5643 22.7727 77.6197 22.973 77.7305 23.1406C77.8441 23.3054 77.989 23.4432 78.1651 23.554C78.3413 23.6619 78.5259 23.7514 78.7191 23.8224C78.9123 23.8906 79.0898 23.946 79.2518 23.9886L80.1381 24.2273C80.3654 24.2869 80.6183 24.3693 80.8967 24.4744C81.1779 24.5795 81.4464 24.723 81.7021 24.9048C81.9606 25.0838 82.1737 25.3139 82.3413 25.5952C82.5089 25.8764 82.5927 26.2216 82.5927 26.6307C82.5927 27.1023 82.4691 27.5284 82.2219 27.9091C81.9776 28.2898 81.6197 28.5923 81.1481 28.8168C80.6793 29.0412 80.1097 29.1534 79.4393 29.1534C78.8143 29.1534 78.2731 29.0526 77.8157 28.8509C77.3612 28.6491 77.0032 28.3679 76.7418 28.0071C76.4833 27.6463 76.337 27.2273 76.3029 26.75H77.3938C77.4222 27.0795 77.533 27.3523 77.7262 27.5682C77.9222 27.7812 78.1694 27.9403 78.4677 28.0455C78.7688 28.1477 79.0927 28.1989 79.4393 28.1989C79.8427 28.1989 80.2049 28.1335 80.5259 28.0028C80.8469 27.8693 81.1012 27.6847 81.2887 27.4489C81.4762 27.2102 81.57 26.9318 81.57 26.6136C81.57 26.3239 81.489 26.0881 81.3271 25.9062C81.1651 25.7244 80.9521 25.5767 80.6879 25.4631C80.4237 25.3494 80.1381 25.25 79.8313 25.1648L78.7575 24.858C78.0756 24.6619 77.5359 24.3821 77.1381 24.0185C76.7404 23.6548 76.5415 23.179 76.5415 22.5909C76.5415 22.1023 76.6737 21.6761 76.9379 21.3125C77.2049 20.946 77.5629 20.6619 78.0117 20.4602C78.4634 20.2557 78.9677 20.1534 79.5245 20.1534C80.087 20.1534 80.587 20.2543 81.0245 20.456C81.462 20.6548 81.8086 20.9276 82.0643 21.2741C82.3228 21.6207 82.4592 22.0142 82.4734 22.4545H81.4506ZM87.0405 22.4545V23.3068H83.6484V22.4545H87.0405ZM84.6371 20.8864H85.6428V27.125C85.6428 27.4091 85.6839 27.6222 85.7663 27.7642C85.8516 27.9034 85.9595 27.9972 86.0902 28.0455C86.2237 28.0909 86.3643 28.1136 86.5121 28.1136C86.6229 28.1136 86.7138 28.108 86.7848 28.0966C86.8558 28.0824 86.9126 28.071 86.9553 28.0625L87.1598 28.9659C87.0916 28.9915 86.9964 29.017 86.8743 29.0426C86.7521 29.071 86.5973 29.0852 86.4098 29.0852C86.1257 29.0852 85.8473 29.0241 85.5746 28.902C85.3047 28.7798 85.0803 28.5938 84.9013 28.3438C84.7251 28.0938 84.6371 27.7784 84.6371 27.3977V20.8864ZM89.2862 29.0682C89.076 29.0682 88.8956 28.9929 88.745 28.8423C88.5945 28.6918 88.5192 28.5114 88.5192 28.3011C88.5192 28.0909 88.5945 27.9105 88.745 27.7599C88.8956 27.6094 89.076 27.5341 89.2862 27.5341C89.4964 27.5341 89.6768 27.6094 89.8274 27.7599C89.978 27.9105 90.0533 28.0909 90.0533 28.3011C90.0533 28.4403 90.0178 28.5682 89.9467 28.6847C89.8786 28.8011 89.7862 28.8949 89.6697 28.9659C89.5561 29.0341 89.4283 29.0682 89.2862 29.0682ZM93.358 27.8068L93.2898 28.267C93.2415 28.5909 93.1676 28.9375 93.0682 29.3068C92.9716 29.6761 92.8707 30.0241 92.7656 30.3509C92.6605 30.6776 92.5739 30.9375 92.5057 31.1307H91.7386C91.7756 30.9489 91.8239 30.7088 91.8835 30.4105C91.9432 30.1122 92.0028 29.7784 92.0625 29.4091C92.125 29.0426 92.1761 28.6676 92.2159 28.2841L92.267 27.8068H93.358ZM104.46 20.2727H105.517V26.0511C105.517 26.6477 105.376 27.1804 105.095 27.6491C104.816 28.1151 104.423 28.483 103.914 28.7528C103.406 29.0199 102.809 29.1534 102.125 29.1534C101.44 29.1534 100.843 29.0199 100.335 28.7528C99.8263 28.483 99.4315 28.1151 99.1502 27.6491C98.8718 27.1804 98.7326 26.6477 98.7326 26.0511V20.2727H99.7894V25.9659C99.7894 26.392 99.8832 26.7713 100.071 27.1037C100.258 27.4332 100.525 27.6932 100.872 27.8835C101.221 28.071 101.639 28.1648 102.125 28.1648C102.61 28.1648 103.028 28.071 103.377 27.8835C103.727 27.6932 103.994 27.4332 104.179 27.1037C104.366 26.7713 104.46 26.392 104.46 25.9659V20.2727ZM108.496 25.0625V29H107.491V22.4545H108.462V23.4773H108.548C108.701 23.1449 108.934 22.8778 109.246 22.6761C109.559 22.4716 109.962 22.3693 110.457 22.3693C110.9 22.3693 111.288 22.4602 111.62 22.642C111.952 22.821 112.211 23.0938 112.396 23.4602C112.58 23.8239 112.673 24.2841 112.673 24.8409V29H111.667V24.9091C111.667 24.3949 111.533 23.9943 111.266 23.7074C110.999 23.4176 110.633 23.2727 110.167 23.2727C109.846 23.2727 109.559 23.3423 109.306 23.4815C109.056 23.6207 108.859 23.8239 108.714 24.0909C108.569 24.358 108.496 24.6818 108.496 25.0625ZM114.51 29V22.4545H115.516V29H114.51ZM115.022 21.3636C114.826 21.3636 114.657 21.2969 114.515 21.1634C114.375 21.0298 114.306 20.8693 114.306 20.6818C114.306 20.4943 114.375 20.3338 114.515 20.2003C114.657 20.0668 114.826 20 115.022 20C115.218 20 115.385 20.0668 115.525 20.2003C115.667 20.3338 115.738 20.4943 115.738 20.6818C115.738 20.8693 115.667 21.0298 115.525 21.1634C115.385 21.2969 115.218 21.3636 115.022 21.3636ZM120.205 22.4545V23.3068H116.812V22.4545H120.205ZM117.801 20.8864H118.807V27.125C118.807 27.4091 118.848 27.6222 118.93 27.7642C119.016 27.9034 119.124 27.9972 119.254 28.0455C119.388 28.0909 119.528 28.1136 119.676 28.1136C119.787 28.1136 119.878 28.108 119.949 28.0966C120.02 28.0824 120.077 28.071 120.119 28.0625L120.324 28.9659C120.256 28.9915 120.161 29.017 120.038 29.0426C119.916 29.071 119.761 29.0852 119.574 29.0852C119.29 29.0852 119.011 29.0241 118.739 28.902C118.469 28.7798 118.244 28.5938 118.065 28.3438C117.889 28.0938 117.801 27.7784 117.801 27.3977V20.8864ZM128.143 20.2727V29H127.087V21.3807H127.036L124.905 22.7955V21.7216L127.087 20.2727H128.143ZM133.722 20.2727V29H132.665V21.3807H132.614L130.483 22.7955V21.7216L132.665 20.2727H133.722ZM138.959 29.1193C138.459 29.1193 138.009 29.0199 137.608 28.821C137.207 28.6222 136.886 28.3494 136.645 28.0028C136.403 27.6562 136.271 27.2614 136.249 26.8182H137.271C137.311 27.2131 137.49 27.5398 137.808 27.7983C138.129 28.054 138.513 28.1818 138.959 28.1818C139.317 28.1818 139.635 28.098 139.913 27.9304C140.195 27.7628 140.415 27.5327 140.574 27.2401C140.736 26.9446 140.817 26.6108 140.817 26.2386C140.817 25.858 140.733 25.5185 140.565 25.2202C140.401 24.919 140.173 24.6818 139.884 24.5085C139.594 24.3352 139.263 24.2472 138.891 24.2443C138.624 24.2415 138.349 24.2827 138.068 24.3679C137.787 24.4503 137.555 24.5568 137.374 24.6875L136.385 24.5682L136.913 20.2727H141.447V21.2102H137.8L137.493 23.7841H137.544C137.723 23.642 137.947 23.5241 138.217 23.4304C138.487 23.3366 138.768 23.2898 139.061 23.2898C139.595 23.2898 140.071 23.4176 140.489 23.6733C140.909 23.9261 141.239 24.2727 141.477 24.7131C141.719 25.1534 141.839 25.6562 141.839 26.2216C141.839 26.7784 141.714 27.2756 141.464 27.7131C141.217 28.1477 140.876 28.4915 140.442 28.7443C140.007 28.9943 139.513 29.1193 138.959 29.1193ZM1.05682 49V40.2727H2.11364V44.6023H2.21591L6.13636 40.2727H7.51705L3.85227 44.2102L7.51705 49H6.23864L3.20455 44.9432L2.11364 46.1705V49H1.05682ZM9.15874 49V42.4545H10.1644V49H9.15874ZM9.6701 41.3636C9.47408 41.3636 9.30504 41.2969 9.163 41.1634C9.02379 41.0298 8.95419 40.8693 8.95419 40.6818C8.95419 40.4943 9.02379 40.3338 9.163 40.2003C9.30504 40.0668 9.47408 40 9.6701 40C9.86612 40 10.0337 40.0668 10.1729 40.2003C10.315 40.3338 10.386 40.4943 10.386 40.6818C10.386 40.8693 10.315 41.0298 10.1729 41.1634C10.0337 41.2969 9.86612 41.3636 9.6701 41.3636ZM14.853 42.4545V43.3068H11.4609V42.4545H14.853ZM12.4496 40.8864H13.4553V47.125C13.4553 47.4091 13.4964 47.6222 13.5788 47.7642C13.6641 47.9034 13.772 47.9972 13.9027 48.0455C14.0362 48.0909 14.1768 48.1136 14.3246 48.1136C14.4354 48.1136 14.5263 48.108 14.5973 48.0966C14.6683 48.0824 14.7251 48.071 14.7678 48.0625L14.9723 48.9659C14.9041 48.9915 14.8089 49.017 14.6868 49.0426C14.5646 49.071 14.4098 49.0852 14.2223 49.0852C13.9382 49.0852 13.6598 49.0241 13.3871 48.902C13.1172 48.7798 12.8928 48.5938 12.7138 48.3438C12.5376 48.0938 12.4496 47.7784 12.4496 47.3977V40.8864ZM18.9545 49.1364C18.3409 49.1364 17.8125 48.9915 17.3693 48.7017C16.9261 48.4119 16.5852 48.0128 16.3466 47.5043C16.108 46.9957 15.9886 46.4148 15.9886 45.7614C15.9886 45.0966 16.1108 44.5099 16.3551 44.0014C16.6023 43.4901 16.946 43.0909 17.3864 42.804C17.8295 42.5142 18.3466 42.3693 18.9375 42.3693C19.3977 42.3693 19.8125 42.4545 20.1818 42.625C20.5511 42.7955 20.8537 43.0341 21.0895 43.3409C21.3253 43.6477 21.4716 44.0057 21.5284 44.4148H20.5227C20.446 44.1165 20.2756 43.8523 20.0114 43.6222C19.75 43.3892 19.3977 43.2727 18.9545 43.2727C18.5625 43.2727 18.2188 43.375 17.9233 43.5795C17.6307 43.7812 17.402 44.0668 17.2372 44.4361C17.0753 44.8026 16.9943 45.233 16.9943 45.7273C16.9943 46.233 17.0739 46.6733 17.233 47.0483C17.3949 47.4233 17.6222 47.7145 17.9148 47.9219C18.2102 48.1293 18.5568 48.233 18.9545 48.233C19.2159 48.233 19.4531 48.1875 19.6662 48.0966C19.8793 48.0057 20.0597 47.875 20.2074 47.7045C20.3551 47.5341 20.4602 47.3295 20.5227 47.0909H21.5284C21.4716 47.4773 21.331 47.8253 21.1065 48.1349C20.8849 48.4418 20.5909 48.6861 20.2244 48.8679C19.8608 49.0469 19.4375 49.1364 18.9545 49.1364ZM24.0043 45.0625V49H22.9986V40.2727H24.0043V43.4773H24.0895C24.2429 43.1392 24.473 42.8707 24.7798 42.6719C25.0895 42.4702 25.5014 42.3693 26.0156 42.3693C26.4616 42.3693 26.8523 42.4588 27.1875 42.6378C27.5227 42.8139 27.7827 43.0852 27.9673 43.4517C28.1548 43.8153 28.2486 44.2784 28.2486 44.8409V49H27.2429V44.9091C27.2429 44.3892 27.108 43.9872 26.8381 43.7031C26.571 43.4162 26.2003 43.2727 25.7259 43.2727C25.3963 43.2727 25.1009 43.3423 24.8395 43.4815C24.581 43.6207 24.3764 43.8239 24.2259 44.0909C24.0781 44.358 24.0043 44.6818 24.0043 45.0625ZM32.8327 49.1364C32.2021 49.1364 31.658 48.9972 31.2006 48.7188C30.7461 48.4375 30.3952 48.0455 30.1481 47.5426C29.9038 47.0369 29.7816 46.4489 29.7816 45.7784C29.7816 45.108 29.9038 44.517 30.1481 44.0057C30.3952 43.4915 30.739 43.0909 31.1793 42.804C31.6225 42.5142 32.1396 42.3693 32.7305 42.3693C33.0714 42.3693 33.408 42.4261 33.7404 42.5398C34.0728 42.6534 34.3754 42.8381 34.6481 43.0938C34.9208 43.3466 35.1381 43.6818 35.3001 44.0994C35.462 44.517 35.543 45.0312 35.543 45.642V46.0682H30.4975V45.1989H34.5202C34.5202 44.8295 34.4464 44.5 34.2987 44.2102C34.1538 43.9205 33.9464 43.6918 33.6765 43.5241C33.4094 43.3565 33.0941 43.2727 32.7305 43.2727C32.3299 43.2727 31.9833 43.3722 31.6907 43.571C31.4009 43.767 31.1779 44.0227 31.0217 44.3381C30.8654 44.6534 30.7873 44.9915 30.7873 45.3523V45.9318C30.7873 46.4261 30.8725 46.8452 31.043 47.1889C31.2163 47.5298 31.4563 47.7898 31.7631 47.9688C32.07 48.1449 32.4265 48.233 32.8327 48.233C33.0969 48.233 33.3356 48.196 33.5487 48.1222C33.7646 48.0455 33.9506 47.9318 34.1069 47.7812C34.2631 47.6278 34.3839 47.4375 34.4691 47.2102L35.4407 47.483C35.3384 47.8125 35.1665 48.1023 34.9251 48.3523C34.6836 48.5994 34.3853 48.7926 34.0302 48.9318C33.6751 49.0682 33.2759 49.1364 32.8327 49.1364ZM38.0785 45.0625V49H37.0728V42.4545H38.0444V43.4773H38.1296C38.283 43.1449 38.516 42.8778 38.8285 42.6761C39.141 42.4716 39.5444 42.3693 40.0387 42.3693C40.4819 42.3693 40.8697 42.4602 41.2021 42.642C41.5344 42.821 41.793 43.0938 41.9776 43.4602C42.1623 43.8239 42.2546 44.2841 42.2546 44.8409V49H41.2489V44.9091C41.2489 44.3949 41.1154 43.9943 40.8484 43.7074C40.5813 43.4176 40.2148 43.2727 39.7489 43.2727C39.4279 43.2727 39.141 43.3423 38.8881 43.4815C38.6381 43.6207 38.4407 43.8239 38.2958 44.0909C38.1509 44.358 38.0785 44.6818 38.0785 45.0625ZM46.8366 49.1364C46.206 49.1364 45.6619 48.9972 45.2045 48.7188C44.75 48.4375 44.3991 48.0455 44.152 47.5426C43.9077 47.0369 43.7855 46.4489 43.7855 45.7784C43.7855 45.108 43.9077 44.517 44.152 44.0057C44.3991 43.4915 44.7429 43.0909 45.1832 42.804C45.6264 42.5142 46.1435 42.3693 46.7344 42.3693C47.0753 42.3693 47.4119 42.4261 47.7443 42.5398C48.0767 42.6534 48.3793 42.8381 48.652 43.0938C48.9247 43.3466 49.142 43.6818 49.304 44.0994C49.4659 44.517 49.5469 45.0312 49.5469 45.642V46.0682H44.5014V45.1989H48.5241C48.5241 44.8295 48.4503 44.5 48.3026 44.2102C48.1577 43.9205 47.9503 43.6918 47.6804 43.5241C47.4134 43.3565 47.098 43.2727 46.7344 43.2727C46.3338 43.2727 45.9872 43.3722 45.6946 43.571C45.4048 43.767 45.1818 44.0227 45.0256 44.3381C44.8693 44.6534 44.7912 44.9915 44.7912 45.3523V45.9318C44.7912 46.4261 44.8764 46.8452 45.0469 47.1889C45.2202 47.5298 45.4602 47.7898 45.767 47.9688C46.0739 48.1449 46.4304 48.233 46.8366 48.233C47.1009 48.233 47.3395 48.196 47.5526 48.1222C47.7685 48.0455 47.9545 47.9318 48.1108 47.7812C48.267 47.6278 48.3878 47.4375 48.473 47.2102L49.4446 47.483C49.3423 47.8125 49.1705 48.1023 48.929 48.3523C48.6875 48.5994 48.3892 48.7926 48.0341 48.9318C47.679 49.0682 47.2798 49.1364 46.8366 49.1364ZM51.0767 49V42.4545H52.0483V43.4432H52.1165C52.2358 43.1193 52.4517 42.8565 52.7642 42.6548C53.0767 42.4531 53.429 42.3523 53.821 42.3523C53.8949 42.3523 53.9872 42.3537 54.098 42.3565C54.2088 42.3594 54.2926 42.3636 54.3494 42.3693V43.392C54.3153 43.3835 54.2372 43.3707 54.1151 43.3537C53.9957 43.3338 53.8693 43.3239 53.7358 43.3239C53.4176 43.3239 53.1335 43.3906 52.8835 43.5241C52.6364 43.6548 52.4403 43.8366 52.2955 44.0696C52.1534 44.2997 52.0824 44.5625 52.0824 44.858V49H51.0767ZM56.2915 47.8068L56.2234 48.267C56.1751 48.5909 56.1012 48.9375 56.0018 49.3068C55.9052 49.6761 55.8043 50.0241 55.6992 50.3509C55.5941 50.6776 55.5075 50.9375 55.4393 51.1307H54.6722C54.7092 50.9489 54.7575 50.7088 54.8171 50.4105C54.8768 50.1122 54.9364 49.7784 54.9961 49.4091C55.0586 49.0426 55.1097 48.6676 55.1495 48.2841L55.2006 47.8068H56.2915ZM69.0298 44.6364C69.0298 45.5568 68.8636 46.3523 68.5312 47.0227C68.1989 47.6932 67.7429 48.2102 67.1634 48.5739C66.5838 48.9375 65.9219 49.1193 65.1776 49.1193C64.4332 49.1193 63.7713 48.9375 63.1918 48.5739C62.6122 48.2102 62.1563 47.6932 61.8239 47.0227C61.4915 46.3523 61.3253 45.5568 61.3253 44.6364C61.3253 43.7159 61.4915 42.9205 61.8239 42.25C62.1563 41.5795 62.6122 41.0625 63.1918 40.6989C63.7713 40.3352 64.4332 40.1534 65.1776 40.1534C65.9219 40.1534 66.5838 40.3352 67.1634 40.6989C67.7429 41.0625 68.1989 41.5795 68.5312 42.25C68.8636 42.9205 69.0298 43.7159 69.0298 44.6364ZM68.0071 44.6364C68.0071 43.8807 67.8807 43.2429 67.6278 42.723C67.3778 42.2031 67.0384 41.8097 66.6094 41.5426C66.1832 41.2756 65.706 41.142 65.1776 41.142C64.6491 41.142 64.1705 41.2756 63.7415 41.5426C63.3153 41.8097 62.9759 42.2031 62.723 42.723C62.473 43.2429 62.348 43.8807 62.348 44.6364C62.348 45.392 62.473 46.0298 62.723 46.5497C62.9759 47.0696 63.3153 47.4631 63.7415 47.7301C64.1705 47.9972 64.6491 48.1307 65.1776 48.1307C65.706 48.1307 66.1832 47.9972 66.6094 47.7301C67.0384 47.4631 67.3778 47.0696 67.6278 46.5497C67.8807 46.0298 68.0071 45.392 68.0071 44.6364ZM77.7273 40.2727V49H76.7045L71.9489 42.1477H71.8636V49H70.8068V40.2727H71.8295L76.6023 47.142H76.6875V40.2727H77.7273ZM90.1374 40.2727V49H89.1147L84.359 42.1477H84.2738V49H83.217V40.2727H84.2397L89.0124 47.142H89.0977V40.2727H90.1374ZM92.0987 49V48.233L94.9794 45.0795C95.3175 44.7102 95.5959 44.3892 95.8146 44.1165C96.0334 43.8409 96.1953 43.5824 96.3004 43.3409C96.4084 43.0966 96.4624 42.8409 96.4624 42.5739C96.4624 42.267 96.3885 42.0014 96.2408 41.777C96.0959 41.5526 95.897 41.3793 95.6442 41.2571C95.3913 41.1349 95.1072 41.0739 94.7919 41.0739C94.4567 41.0739 94.1641 41.1435 93.9141 41.2827C93.6669 41.419 93.4751 41.6108 93.3388 41.858C93.2053 42.1051 93.1385 42.3949 93.1385 42.7273H92.1328C92.1328 42.2159 92.2507 41.767 92.4865 41.3807C92.7223 40.9943 93.0433 40.6932 93.4496 40.4773C93.8587 40.2614 94.3175 40.1534 94.826 40.1534C95.3374 40.1534 95.7905 40.2614 96.1854 40.4773C96.5803 40.6932 96.8899 40.9844 97.1143 41.3509C97.3388 41.7173 97.451 42.125 97.451 42.5739C97.451 42.8949 97.3928 43.2088 97.2763 43.5156C97.1626 43.8196 96.9638 44.1591 96.6797 44.5341C96.3984 44.9062 96.0078 45.3608 95.5078 45.8977L93.5476 47.9943V48.0625H97.6044V49H92.0987ZM105.484 43C105.39 42.7131 105.266 42.456 105.113 42.2287C104.962 41.9986 104.782 41.8026 104.572 41.6406C104.364 41.4787 104.129 41.3551 103.864 41.2699C103.6 41.1847 103.31 41.142 102.995 41.142C102.478 41.142 102.008 41.2756 101.585 41.5426C101.161 41.8097 100.825 42.2031 100.575 42.723C100.325 43.2429 100.2 43.8807 100.2 44.6364C100.2 45.392 100.326 46.0298 100.579 46.5497C100.832 47.0696 101.174 47.4631 101.606 47.7301C102.038 47.9972 102.523 48.1307 103.063 48.1307C103.563 48.1307 104.004 48.0241 104.384 47.8111C104.768 47.5952 105.066 47.2912 105.279 46.8991C105.495 46.5043 105.603 46.0398 105.603 45.5057L105.927 45.5739H103.302V44.6364H106.626V45.5739C106.626 46.2926 106.472 46.9176 106.165 47.4489C105.862 47.9801 105.441 48.392 104.904 48.6847C104.37 48.9744 103.756 49.1193 103.063 49.1193C102.29 49.1193 101.612 48.9375 101.026 48.5739C100.444 48.2102 99.9893 47.6932 99.6626 47.0227C99.3388 46.3523 99.1768 45.5568 99.1768 44.6364C99.1768 43.946 99.2692 43.3253 99.4538 42.7741C99.6413 42.2202 99.9055 41.7486 100.246 41.3594C100.587 40.9702 100.991 40.6719 101.457 40.4645C101.923 40.2571 102.435 40.1534 102.995 40.1534C103.455 40.1534 103.884 40.223 104.282 40.3622C104.683 40.4986 105.039 40.6932 105.352 40.946C105.667 41.196 105.93 41.4957 106.14 41.8452C106.35 42.1918 106.495 42.5767 106.575 43H105.484ZM111.453 47.2102V46.3409L115.288 40.2727H115.919V41.6193H115.493L112.595 46.2045V46.2727H117.76V47.2102H111.453ZM115.561 49V46.946V46.5412V40.2727H116.566V49H115.561ZM120.021 40.2727L122.271 43.9034H122.339L124.589 40.2727H125.834L123.089 44.6364L125.834 49H124.589L122.339 45.4375H122.271L120.021 49H118.777L121.589 44.6364L118.777 40.2727H120.021ZM129.851 49.1193C129.266 49.1193 128.749 49.0156 128.3 48.8082C127.854 48.598 127.506 48.3097 127.256 47.9432C127.006 47.5739 126.882 47.1534 126.885 46.6818C126.882 46.3125 126.955 45.9716 127.103 45.6591C127.25 45.3437 127.452 45.081 127.708 44.8707C127.966 44.6577 128.255 44.5227 128.573 44.4659V44.4148C128.155 44.3068 127.823 44.0724 127.576 43.7116C127.328 43.348 127.206 42.9347 127.209 42.4716C127.206 42.0284 127.319 41.6321 127.546 41.2827C127.773 40.9332 128.086 40.6577 128.483 40.456C128.884 40.2543 129.34 40.1534 129.851 40.1534C130.357 40.1534 130.809 40.2543 131.206 40.456C131.604 40.6577 131.917 40.9332 132.144 41.2827C132.374 41.6321 132.49 42.0284 132.493 42.4716C132.49 42.9347 132.364 43.348 132.114 43.7116C131.867 44.0724 131.539 44.3068 131.13 44.4148V44.4659C131.445 44.5227 131.729 44.6577 131.982 44.8707C132.235 45.081 132.436 45.3437 132.587 45.6591C132.738 45.9716 132.814 46.3125 132.817 46.6818C132.814 47.1534 132.686 47.5739 132.434 47.9432C132.184 48.3097 131.836 48.598 131.39 48.8082C130.946 49.0156 130.434 49.1193 129.851 49.1193ZM129.851 48.1818C130.246 48.1818 130.587 48.1179 130.874 47.9901C131.161 47.8622 131.382 47.6818 131.539 47.4489C131.695 47.2159 131.775 46.9432 131.777 46.6307C131.775 46.3011 131.689 46.0099 131.522 45.7571C131.354 45.5043 131.125 45.3054 130.836 45.1605C130.549 45.0156 130.221 44.9432 129.851 44.9432C129.479 44.9432 129.147 45.0156 128.854 45.1605C128.564 45.3054 128.336 45.5043 128.168 45.7571C128.003 46.0099 127.922 46.3011 127.925 46.6307C127.922 46.9432 127.998 47.2159 128.151 47.4489C128.307 47.6818 128.53 47.8622 128.82 47.9901C129.11 48.1179 129.453 48.1818 129.851 48.1818ZM129.851 44.0398C130.164 44.0398 130.441 43.9773 130.682 43.8523C130.926 43.7273 131.118 43.5526 131.257 43.3281C131.397 43.1037 131.468 42.8409 131.471 42.5398C131.468 42.2443 131.398 41.9872 131.262 41.7685C131.125 41.5469 130.936 41.3764 130.695 41.2571C130.453 41.1349 130.172 41.0739 129.851 41.0739C129.525 41.0739 129.239 41.1349 128.995 41.2571C128.75 41.3764 128.561 41.5469 128.428 41.7685C128.294 41.9872 128.229 42.2443 128.232 42.5398C128.229 42.8409 128.296 43.1037 128.432 43.3281C128.571 43.5526 128.763 43.7273 129.007 43.8523C129.252 43.9773 129.533 44.0398 129.851 44.0398ZM6.78409 60.2727H7.84091V66.0511C7.84091 66.6477 7.70028 67.1804 7.41903 67.6491C7.14063 68.1151 6.74716 68.483 6.23864 68.7528C5.73011 69.0199 5.13352 69.1534 4.44886 69.1534C3.7642 69.1534 3.16761 69.0199 2.65909 68.7528C2.15057 68.483 1.75568 68.1151 1.47443 67.6491C1.19602 67.1804 1.05682 66.6477 1.05682 66.0511V60.2727H2.11364V65.9659C2.11364 66.392 2.20739 66.7713 2.39489 67.1037C2.58239 67.4332 2.84943 67.6932 3.19602 67.8835C3.54545 68.071 3.96307 68.1648 4.44886 68.1648C4.93466 68.1648 5.35227 68.071 5.7017 67.8835C6.05114 67.6932 6.31818 67.4332 6.50284 67.1037C6.69034 66.7713 6.78409 66.392 6.78409 65.9659V60.2727ZM10.7525 66.6136L10.7354 65.3693H10.94L13.8036 62.4545H15.0479L11.9968 65.5398H11.9116L10.7525 66.6136ZM9.81499 69V60.2727H10.8207V69H9.81499ZM13.9741 69L11.4173 65.7614L12.1332 65.0625L15.2525 69H13.9741ZM16.3423 69V62.4545H17.3139V63.4432H17.3821C17.5014 63.1193 17.7173 62.8565 18.0298 62.6548C18.3423 62.4531 18.6946 62.3523 19.0866 62.3523C19.1605 62.3523 19.2528 62.3537 19.3636 62.3565C19.4744 62.3594 19.5582 62.3636 19.6151 62.3693V63.392C19.581 63.3835 19.5028 63.3707 19.3807 63.3537C19.2614 63.3338 19.1349 63.3239 19.0014 63.3239C18.6832 63.3239 18.3991 63.3906 18.1491 63.5241C17.902 63.6548 17.706 63.8366 17.5611 64.0696C17.419 64.2997 17.348 64.5625 17.348 64.858V69H16.3423ZM22.7333 69.1534C22.3185 69.1534 21.9421 69.0753 21.604 68.919C21.266 68.7599 20.9975 68.5312 20.7987 68.233C20.5998 67.9318 20.5004 67.5682 20.5004 67.142C20.5004 66.767 20.5742 66.4631 20.7219 66.2301C20.8697 65.9943 21.0671 65.8097 21.3143 65.6761C21.5614 65.5426 21.8342 65.4432 22.1325 65.3778C22.4336 65.3097 22.7362 65.2557 23.0401 65.2159C23.4379 65.1648 23.7603 65.1264 24.0075 65.1009C24.2575 65.0724 24.4393 65.0256 24.5529 64.9602C24.6694 64.8949 24.7276 64.7812 24.7276 64.6193V64.5852C24.7276 64.1648 24.6126 63.8381 24.3825 63.6051C24.1552 63.3722 23.81 63.2557 23.3469 63.2557C22.8668 63.2557 22.4904 63.3608 22.2177 63.571C21.945 63.7812 21.7532 64.0057 21.6424 64.2443L20.6879 63.9034C20.8583 63.5057 21.0856 63.196 21.3697 62.9744C21.6566 62.75 21.9691 62.5937 22.3072 62.5057C22.6481 62.4148 22.9833 62.3693 23.3129 62.3693C23.5231 62.3693 23.7646 62.3949 24.0373 62.446C24.3129 62.4943 24.5785 62.5952 24.8342 62.7486C25.0927 62.902 25.3072 63.1335 25.4776 63.4432C25.6481 63.7528 25.7333 64.1676 25.7333 64.6875V69H24.7276V68.1136H24.6765C24.6083 68.2557 24.4947 68.4077 24.3356 68.5696C24.1765 68.7315 23.9648 68.8693 23.7006 68.983C23.4364 69.0966 23.114 69.1534 22.7333 69.1534ZM22.8867 68.25C23.2844 68.25 23.6197 68.1719 23.8924 68.0156C24.168 67.8594 24.3754 67.6577 24.5146 67.4105C24.6566 67.1634 24.7276 66.9034 24.7276 66.6307V65.7102C24.685 65.7614 24.5913 65.8082 24.4464 65.8509C24.3043 65.8906 24.1396 65.9261 23.9521 65.9574C23.7674 65.9858 23.587 66.0114 23.4109 66.0341C23.2376 66.054 23.0969 66.071 22.989 66.0852C22.7276 66.1193 22.4833 66.1747 22.256 66.2514C22.0316 66.3253 21.8498 66.4375 21.7106 66.5881C21.5742 66.7358 21.506 66.9375 21.506 67.1932C21.506 67.5426 21.6353 67.8068 21.8938 67.9858C22.1552 68.1619 22.4862 68.25 22.8867 68.25ZM27.5689 69V62.4545H28.5746V69H27.5689ZM28.0803 61.3636C27.8842 61.3636 27.7152 61.2969 27.5732 61.1634C27.4339 61.0298 27.3643 60.8693 27.3643 60.6818C27.3643 60.4943 27.4339 60.3338 27.5732 60.2003C27.7152 60.0668 27.8842 60 28.0803 60C28.2763 60 28.4439 60.0668 28.5831 60.2003C28.7251 60.3338 28.7962 60.4943 28.7962 60.6818C28.7962 60.8693 28.7251 61.0298 28.5831 61.1634C28.4439 61.2969 28.2763 61.3636 28.0803 61.3636ZM31.4222 65.0625V69H30.4165V62.4545H31.3881V63.4773H31.4734C31.6268 63.1449 31.8597 62.8778 32.1722 62.6761C32.4847 62.4716 32.8881 62.3693 33.3825 62.3693C33.8256 62.3693 34.2134 62.4602 34.5458 62.642C34.8782 62.821 35.1367 63.0938 35.3214 63.4602C35.506 63.8239 35.5984 64.2841 35.5984 64.8409V69H34.5927V64.9091C34.5927 64.3949 34.4592 63.9943 34.1921 63.7074C33.9251 63.4176 33.5586 63.2727 33.0927 63.2727C32.7717 63.2727 32.4847 63.3423 32.2319 63.4815C31.9819 63.6207 31.7844 63.8239 31.6396 64.0909C31.4947 64.358 31.4222 64.6818 31.4222 65.0625ZM40.1804 69.1364C39.5497 69.1364 39.0057 68.9972 38.5483 68.7188C38.0938 68.4375 37.7429 68.0455 37.4957 67.5426C37.2514 67.0369 37.1293 66.4489 37.1293 65.7784C37.1293 65.108 37.2514 64.517 37.4957 64.0057C37.7429 63.4915 38.0866 63.0909 38.527 62.804C38.9702 62.5142 39.4872 62.3693 40.0781 62.3693C40.419 62.3693 40.7557 62.4261 41.0881 62.5398C41.4205 62.6534 41.723 62.8381 41.9957 63.0938C42.2685 63.3466 42.4858 63.6818 42.6477 64.0994C42.8097 64.517 42.8906 65.0312 42.8906 65.642V66.0682H37.8452V65.1989H41.8679C41.8679 64.8295 41.794 64.5 41.6463 64.2102C41.5014 63.9205 41.294 63.6918 41.0241 63.5241C40.7571 63.3565 40.4418 63.2727 40.0781 63.2727C39.6776 63.2727 39.331 63.3722 39.0384 63.571C38.7486 63.767 38.5256 64.0227 38.3693 64.3381C38.2131 64.6534 38.1349 64.9915 38.1349 65.3523V65.9318C38.1349 66.4261 38.2202 66.8452 38.3906 67.1889C38.5639 67.5298 38.804 67.7898 39.1108 67.9688C39.4176 68.1449 39.7741 68.233 40.1804 68.233C40.4446 68.233 40.6832 68.196 40.8963 68.1222C41.1122 68.0455 41.2983 67.9318 41.4545 67.7812C41.6108 67.6278 41.7315 67.4375 41.8168 67.2102L42.7884 67.483C42.6861 67.8125 42.5142 68.1023 42.2727 68.3523C42.0313 68.5994 41.733 68.7926 41.3778 68.9318C41.0227 69.0682 40.6236 69.1364 40.1804 69.1364Z" fill="#1A1A1A"/>
</svg>
