<svg width="102" height="34" viewBox="0 0 102 34" fill="none" xmlns="http://www.w3.org/2000/svg">
<path d="M3.97159 0.272727V9H2.91477V1.38068H2.86364L0.732955 2.79545V1.72159L2.91477 0.272727H3.97159ZM10.2486 4.16761V5.10511H6.4304V4.16761H10.2486ZM14.7965 9.11932C14.2113 9.11932 13.6942 9.01562 13.2454 8.80824C12.7994 8.59801 12.4513 8.30966 12.2013 7.94318C11.9513 7.57386 11.8278 7.15341 11.8306 6.68182C11.8278 6.3125 11.9002 5.97159 12.0479 5.65909C12.1957 5.34375 12.3974 5.08097 12.6531 4.87074C12.9116 4.65767 13.1999 4.52273 13.5181 4.46591V4.41477C13.1005 4.30682 12.7681 4.07244 12.521 3.71165C12.2738 3.34801 12.1516 2.93466 12.1545 2.47159C12.1516 2.02841 12.2638 1.6321 12.4911 1.28267C12.7184 0.933238 13.0309 0.65767 13.4286 0.455966C13.8292 0.254261 14.2852 0.153409 14.7965 0.153409C15.3022 0.153409 15.7539 0.254261 16.1516 0.455966C16.5494 0.65767 16.8619 0.933238 17.0891 1.28267C17.3192 1.6321 17.4357 2.02841 17.4386 2.47159C17.4357 2.93466 17.3093 3.34801 17.0593 3.71165C16.8121 4.07244 16.484 4.30682 16.0749 4.41477V4.46591C16.3903 4.52273 16.6744 4.65767 16.9272 4.87074C17.18 5.08097 17.3817 5.34375 17.5323 5.65909C17.6829 5.97159 17.7596 6.3125 17.7624 6.68182C17.7596 7.15341 17.6317 7.57386 17.3789 7.94318C17.1289 8.30966 16.7809 8.59801 16.3349 8.80824C15.8917 9.01562 15.3789 9.11932 14.7965 9.11932ZM14.7965 8.18182C15.1914 8.18182 15.5323 8.1179 15.8192 7.99006C16.1062 7.86222 16.3278 7.68182 16.484 7.44886C16.6403 7.21591 16.7198 6.94318 16.7227 6.63068C16.7198 6.30114 16.6346 6.00994 16.467 5.7571C16.2994 5.50426 16.0707 5.3054 15.7809 5.16051C15.494 5.01562 15.1658 4.94318 14.7965 4.94318C14.4244 4.94318 14.092 5.01562 13.7994 5.16051C13.5096 5.3054 13.2809 5.50426 13.1133 5.7571C12.9485 6.00994 12.8675 6.30114 12.8704 6.63068C12.8675 6.94318 12.9428 7.21591 13.0962 7.44886C13.2525 7.68182 13.4755 7.86222 13.7653 7.99006C14.055 8.1179 14.3988 8.18182 14.7965 8.18182ZM14.7965 4.03977C15.109 4.03977 15.386 3.97727 15.6275 3.85227C15.8718 3.72727 16.0636 3.55256 16.2028 3.32812C16.342 3.10369 16.413 2.84091 16.4158 2.53977C16.413 2.24432 16.3434 1.98722 16.207 1.76847C16.0707 1.54687 15.8817 1.37642 15.6403 1.2571C15.3988 1.13494 15.1175 1.07386 14.7965 1.07386C14.4698 1.07386 14.1843 1.13494 13.94 1.2571C13.6957 1.37642 13.5067 1.54687 13.3732 1.76847C13.2397 1.98722 13.1744 2.24432 13.1772 2.53977C13.1744 2.84091 13.2411 3.10369 13.3775 3.32812C13.5167 3.55256 13.7085 3.72727 13.9528 3.85227C14.1971 3.97727 14.4783 4.03977 14.7965 4.03977ZM22.2422 9.11932C21.6001 9.11932 21.0533 8.9446 20.6016 8.59517C20.1499 8.2429 19.8047 7.73295 19.5661 7.06534C19.3274 6.39489 19.2081 5.58523 19.2081 4.63636C19.2081 3.69318 19.3274 2.88778 19.5661 2.22017C19.8075 1.54972 20.1541 1.03835 20.6058 0.686079C21.0604 0.330966 21.6058 0.153409 22.2422 0.153409C22.8786 0.153409 23.4226 0.330966 23.8743 0.686079C24.3288 1.03835 24.6754 1.54972 24.9141 2.22017C25.1555 2.88778 25.2763 3.69318 25.2763 4.63636C25.2763 5.58523 25.157 6.39489 24.9183 7.06534C24.6797 7.73295 24.3345 8.2429 23.8828 8.59517C23.4311 8.9446 22.8842 9.11932 22.2422 9.11932ZM22.2422 8.18182C22.8786 8.18182 23.3729 7.875 23.7251 7.26136C24.0774 6.64773 24.2536 5.77273 24.2536 4.63636C24.2536 3.88068 24.1726 3.23722 24.0107 2.70597C23.8516 2.17472 23.6214 1.76989 23.3203 1.49148C23.022 1.21307 22.6626 1.07386 22.2422 1.07386C21.6115 1.07386 21.1186 1.38494 20.7635 2.0071C20.4084 2.62642 20.2308 3.50284 20.2308 4.63636C20.2308 5.39205 20.3104 6.03409 20.4695 6.5625C20.6286 7.09091 20.8572 7.4929 21.1555 7.76847C21.4567 8.04403 21.8189 8.18182 22.2422 8.18182ZM29.7422 9.11932C29.1001 9.11932 28.5533 8.9446 28.1016 8.59517C27.6499 8.2429 27.3047 7.73295 27.0661 7.06534C26.8274 6.39489 26.7081 5.58523 26.7081 4.63636C26.7081 3.69318 26.8274 2.88778 27.0661 2.22017C27.3075 1.54972 27.6541 1.03835 28.1058 0.686079C28.5604 0.330966 29.1058 0.153409 29.7422 0.153409C30.3786 0.153409 30.9226 0.330966 31.3743 0.686079C31.8288 1.03835 32.1754 1.54972 32.4141 2.22017C32.6555 2.88778 32.7763 3.69318 32.7763 4.63636C32.7763 5.58523 32.657 6.39489 32.4183 7.06534C32.1797 7.73295 31.8345 8.2429 31.3828 8.59517C30.9311 8.9446 30.3842 9.11932 29.7422 9.11932ZM29.7422 8.18182C30.3786 8.18182 30.8729 7.875 31.2251 7.26136C31.5774 6.64773 31.7536 5.77273 31.7536 4.63636C31.7536 3.88068 31.6726 3.23722 31.5107 2.70597C31.3516 2.17472 31.1214 1.76989 30.8203 1.49148C30.522 1.21307 30.1626 1.07386 29.7422 1.07386C29.1115 1.07386 28.6186 1.38494 28.2635 2.0071C27.9084 2.62642 27.7308 3.50284 27.7308 4.63636C27.7308 5.39205 27.8104 6.03409 27.9695 6.5625C28.1286 7.09091 28.3572 7.4929 28.6555 7.76847C28.9567 8.04403 29.3189 8.18182 29.7422 8.18182ZM38.1626 4.16761V5.10511H34.3445V4.16761H38.1626ZM39.7106 7.21023V6.34091L43.5458 0.272727H44.1765V1.61932H43.7504L40.8526 6.20455V6.27273H46.0174V7.21023H39.7106ZM43.8185 9V6.94602V6.54119V0.272727H44.8242V9H43.8185ZM50.4098 9.11932C49.8246 9.11932 49.3075 9.01562 48.8587 8.80824C48.4126 8.59801 48.0646 8.30966 47.8146 7.94318C47.5646 7.57386 47.4411 7.15341 47.4439 6.68182C47.4411 6.3125 47.5135 5.97159 47.6612 5.65909C47.8089 5.34375 48.0107 5.08097 48.2663 4.87074C48.5249 4.65767 48.8132 4.52273 49.1314 4.46591V4.41477C48.7138 4.30682 48.3814 4.07244 48.1342 3.71165C47.8871 3.34801 47.7649 2.93466 47.7678 2.47159C47.7649 2.02841 47.8771 1.6321 48.1044 1.28267C48.3317 0.933238 48.6442 0.65767 49.0419 0.455966C49.4425 0.254261 49.8984 0.153409 50.4098 0.153409C50.9155 0.153409 51.3672 0.254261 51.7649 0.455966C52.1626 0.65767 52.4751 0.933238 52.7024 1.28267C52.9325 1.6321 53.049 2.02841 53.0518 2.47159C53.049 2.93466 52.9226 3.34801 52.6726 3.71165C52.4254 4.07244 52.0973 4.30682 51.6882 4.41477V4.46591C52.0036 4.52273 52.2876 4.65767 52.5405 4.87074C52.7933 5.08097 52.995 5.34375 53.1456 5.65909C53.2962 5.97159 53.3729 6.3125 53.3757 6.68182C53.3729 7.15341 53.245 7.57386 52.9922 7.94318C52.7422 8.30966 52.3942 8.59801 51.9482 8.80824C51.505 9.01562 50.9922 9.11932 50.4098 9.11932ZM50.4098 8.18182C50.8047 8.18182 51.1456 8.1179 51.4325 7.99006C51.7195 7.86222 51.9411 7.68182 52.0973 7.44886C52.2536 7.21591 52.3331 6.94318 52.3359 6.63068C52.3331 6.30114 52.2479 6.00994 52.0803 5.7571C51.9126 5.50426 51.6839 5.3054 51.3942 5.16051C51.1072 5.01562 50.7791 4.94318 50.4098 4.94318C50.0376 4.94318 49.7053 5.01562 49.4126 5.16051C49.1229 5.3054 48.8942 5.50426 48.7266 5.7571C48.5618 6.00994 48.4808 6.30114 48.4837 6.63068C48.4808 6.94318 48.5561 7.21591 48.7095 7.44886C48.8658 7.68182 49.0888 7.86222 49.3786 7.99006C49.6683 8.1179 50.0121 8.18182 50.4098 8.18182ZM50.4098 4.03977C50.7223 4.03977 50.9993 3.97727 51.2408 3.85227C51.4851 3.72727 51.6768 3.55256 51.8161 3.32812C51.9553 3.10369 52.0263 2.84091 52.0291 2.53977C52.0263 2.24432 51.9567 1.98722 51.8203 1.76847C51.6839 1.54687 51.495 1.37642 51.2536 1.2571C51.0121 1.13494 50.7308 1.07386 50.4098 1.07386C50.0831 1.07386 49.7976 1.13494 49.5533 1.2571C49.3089 1.37642 49.12 1.54687 48.9865 1.76847C48.853 1.98722 48.7876 2.24432 48.7905 2.53977C48.7876 2.84091 48.8544 3.10369 48.9908 3.32812C49.13 3.55256 49.3217 3.72727 49.5661 3.85227C49.8104 3.97727 50.0916 4.03977 50.4098 4.03977ZM57.8555 9.11932C57.2134 9.11932 56.6665 8.9446 56.2148 8.59517C55.7631 8.2429 55.418 7.73295 55.1793 7.06534C54.9407 6.39489 54.8214 5.58523 54.8214 4.63636C54.8214 3.69318 54.9407 2.88778 55.1793 2.22017C55.4208 1.54972 55.7674 1.03835 56.2191 0.686079C56.6737 0.330966 57.2191 0.153409 57.8555 0.153409C58.4918 0.153409 59.0359 0.330966 59.4876 0.686079C59.9421 1.03835 60.2887 1.54972 60.5273 2.22017C60.7688 2.88778 60.8896 3.69318 60.8896 4.63636C60.8896 5.58523 60.7702 6.39489 60.5316 7.06534C60.293 7.73295 59.9478 8.2429 59.4961 8.59517C59.0444 8.9446 58.4975 9.11932 57.8555 9.11932ZM57.8555 8.18182C58.4918 8.18182 58.9862 7.875 59.3384 7.26136C59.6907 6.64773 59.8668 5.77273 59.8668 4.63636C59.8668 3.88068 59.7859 3.23722 59.6239 2.70597C59.4648 2.17472 59.2347 1.76989 58.9336 1.49148C58.6353 1.21307 58.2759 1.07386 57.8555 1.07386C57.2248 1.07386 56.7319 1.38494 56.3768 2.0071C56.0217 2.62642 55.8441 3.50284 55.8441 4.63636C55.8441 5.39205 55.9237 6.03409 56.0827 6.5625C56.2418 7.09091 56.4705 7.4929 56.7688 7.76847C57.07 8.04403 57.4322 8.18182 57.8555 8.18182ZM66.2759 4.16761V5.10511H62.4577V4.16761H66.2759ZM70.8068 0.153409C71.1648 0.15625 71.5227 0.224432 71.8807 0.357954C72.2386 0.491477 72.5653 0.713068 72.8608 1.02273C73.1563 1.32955 73.3935 1.74858 73.5724 2.27983C73.7514 2.81108 73.8409 3.47727 73.8409 4.27841C73.8409 5.05398 73.767 5.7429 73.6193 6.34517C73.4744 6.9446 73.2642 7.45028 72.9886 7.86222C72.7159 8.27415 72.3835 8.58665 71.9915 8.79972C71.6023 9.01278 71.1619 9.11932 70.6705 9.11932C70.1818 9.11932 69.7457 9.02273 69.3622 8.82955C68.9815 8.63352 68.669 8.36222 68.4247 8.01562C68.1832 7.66619 68.0284 7.26136 67.9602 6.80114H69C69.0938 7.2017 69.2798 7.53267 69.5582 7.79403C69.8395 8.05256 70.2102 8.18182 70.6705 8.18182C71.3438 8.18182 71.875 7.88778 72.2642 7.29972C72.6563 6.71165 72.8523 5.88068 72.8523 4.80682H72.7841C72.625 5.04545 72.4361 5.25142 72.2173 5.42472C71.9986 5.59801 71.7557 5.73153 71.4886 5.82528C71.2216 5.91903 70.9375 5.96591 70.6364 5.96591C70.1364 5.96591 69.6776 5.84233 69.2599 5.59517C68.8452 5.34517 68.5128 5.00284 68.2628 4.56818C68.0156 4.13068 67.892 3.63068 67.892 3.06818C67.892 2.53409 68.0114 2.04545 68.25 1.60227C68.4915 1.15625 68.8295 0.801136 69.2642 0.536932C69.7017 0.272727 70.2159 0.144886 70.8068 0.153409ZM70.8068 1.09091C70.4489 1.09091 70.1264 1.1804 69.8395 1.35938C69.5554 1.53551 69.3295 1.77415 69.1619 2.07528C68.9972 2.37358 68.9148 2.70455 68.9148 3.06818C68.9148 3.43182 68.9943 3.76278 69.1534 4.06108C69.3153 4.35653 69.5355 4.59233 69.8139 4.76847C70.0952 4.94176 70.4148 5.02841 70.7727 5.02841C71.0426 5.02841 71.294 4.97585 71.527 4.87074C71.7599 4.76278 71.9631 4.61648 72.1364 4.43182C72.3125 4.24432 72.4503 4.03267 72.5497 3.79688C72.6491 3.55824 72.6989 3.30966 72.6989 3.05114C72.6989 2.71023 72.6165 2.39062 72.4517 2.09233C72.2898 1.79403 72.0653 1.55256 71.7784 1.3679C71.4943 1.18324 71.1705 1.09091 70.8068 1.09091ZM78.244 9.11932C77.744 9.11932 77.2937 9.01989 76.8931 8.82102C76.4925 8.62216 76.1715 8.34943 75.93 8.00284C75.6886 7.65625 75.5565 7.26136 75.5337 6.81818H76.5565C76.5962 7.21307 76.7752 7.53977 77.0934 7.7983C77.4144 8.05398 77.7979 8.18182 78.244 8.18182C78.6019 8.18182 78.9201 8.09801 79.1985 7.9304C79.4798 7.76278 79.6999 7.53267 79.859 7.24006C80.021 6.9446 80.1019 6.6108 80.1019 6.23864C80.1019 5.85795 80.0181 5.51847 79.8505 5.22017C79.6857 4.91903 79.4585 4.68182 79.1687 4.50852C78.8789 4.33523 78.5479 4.24716 78.1758 4.24432C77.9087 4.24148 77.6346 4.28267 77.3533 4.3679C77.0721 4.45028 76.8406 4.55682 76.6587 4.6875L75.6701 4.56818L76.1985 0.272727H80.7326V1.21023H77.0849L76.7781 3.78409H76.8292C77.0082 3.64205 77.2326 3.52415 77.5025 3.4304C77.7724 3.33665 78.0536 3.28977 78.3462 3.28977C78.8803 3.28977 79.3562 3.41761 79.7738 3.6733C80.1942 3.92614 80.5238 4.27273 80.7624 4.71307C81.0039 5.15341 81.1246 5.65625 81.1246 6.22159C81.1246 6.77841 80.9996 7.27557 80.7496 7.71307C80.5025 8.14773 80.1616 8.49148 79.7269 8.74432C79.2923 8.99432 78.7979 9.11932 78.244 9.11932ZM85.5959 0.153409C85.9538 0.15625 86.3118 0.224432 86.6697 0.357954C87.0277 0.491477 87.3544 0.713068 87.6499 1.02273C87.9453 1.32955 88.1825 1.74858 88.3615 2.27983C88.5405 2.81108 88.63 3.47727 88.63 4.27841C88.63 5.05398 88.5561 5.7429 88.4084 6.34517C88.2635 6.9446 88.0533 7.45028 87.7777 7.86222C87.505 8.27415 87.1726 8.58665 86.7805 8.79972C86.3913 9.01278 85.951 9.11932 85.4595 9.11932C84.9709 9.11932 84.5348 9.02273 84.1513 8.82955C83.7706 8.63352 83.4581 8.36222 83.2138 8.01562C82.9723 7.66619 82.8175 7.26136 82.7493 6.80114H83.7891C83.8828 7.2017 84.0689 7.53267 84.3473 7.79403C84.6286 8.05256 84.9993 8.18182 85.4595 8.18182C86.1328 8.18182 86.6641 7.88778 87.0533 7.29972C87.4453 6.71165 87.6413 5.88068 87.6413 4.80682H87.5732C87.4141 5.04545 87.2251 5.25142 87.0064 5.42472C86.7876 5.59801 86.5447 5.73153 86.2777 5.82528C86.0107 5.91903 85.7266 5.96591 85.4254 5.96591C84.9254 5.96591 84.4666 5.84233 84.049 5.59517C83.6342 5.34517 83.3018 5.00284 83.0518 4.56818C82.8047 4.13068 82.6811 3.63068 82.6811 3.06818C82.6811 2.53409 82.8004 2.04545 83.0391 1.60227C83.2805 1.15625 83.6186 0.801136 84.0533 0.536932C84.4908 0.272727 85.005 0.144886 85.5959 0.153409ZM85.5959 1.09091C85.2379 1.09091 84.9155 1.1804 84.6286 1.35938C84.3445 1.53551 84.1186 1.77415 83.951 2.07528C83.7862 2.37358 83.7038 2.70455 83.7038 3.06818C83.7038 3.43182 83.7834 3.76278 83.9425 4.06108C84.1044 4.35653 84.3246 4.59233 84.603 4.76847C84.8842 4.94176 85.2038 5.02841 85.5618 5.02841C85.8317 5.02841 86.0831 4.97585 86.3161 4.87074C86.549 4.76278 86.7521 4.61648 86.9254 4.43182C87.1016 4.24432 87.2393 4.03267 87.3388 3.79688C87.4382 3.55824 87.4879 3.30966 87.4879 3.05114C87.4879 2.71023 87.4055 2.39062 87.2408 2.09233C87.0788 1.79403 86.8544 1.55256 86.5675 1.3679C86.2834 1.18324 85.9595 1.09091 85.5959 1.09091ZM90.3441 9L94.2475 1.27841V1.21023H89.7475V0.272727H95.3384V1.26136L91.4521 9H90.3441ZM0.920455 31V24.4545H1.92614V31H0.920455ZM1.43182 23.3636C1.2358 23.3636 1.06676 23.2969 0.924716 23.1634C0.785511 23.0298 0.715909 22.8693 0.715909 22.6818C0.715909 22.4943 0.785511 22.3338 0.924716 22.2003C1.06676 22.0668 1.2358 22 1.43182 22C1.62784 22 1.79545 22.0668 1.93466 22.2003C2.0767 22.3338 2.14773 22.4943 2.14773 22.6818C2.14773 22.8693 2.0767 23.0298 1.93466 23.1634C1.79545 23.2969 1.62784 23.3636 1.43182 23.3636ZM4.77379 27.0625V31H3.76811V24.4545H4.7397V25.4773H4.82493C4.97834 25.1449 5.21129 24.8778 5.52379 24.6761C5.83629 24.4716 6.2397 24.3693 6.73402 24.3693C7.1772 24.3693 7.56499 24.4602 7.89737 24.642C8.22976 24.821 8.48828 25.0938 8.67294 25.4602C8.8576 25.8239 8.94993 26.2841 8.94993 26.8409V31H7.94425V26.9091C7.94425 26.3949 7.81072 25.9943 7.54368 25.7074C7.27663 25.4176 6.91016 25.2727 6.44425 25.2727C6.12322 25.2727 5.83629 25.3423 5.58345 25.4815C5.33345 25.6207 5.13601 25.8239 4.99112 26.0909C4.84624 26.358 4.77379 26.6818 4.77379 27.0625ZM13.7024 24.4545V25.3068H10.174V24.4545H13.7024ZM11.2308 31V23.5511C11.2308 23.1761 11.3189 22.8636 11.495 22.6136C11.6712 22.3636 11.8999 22.1761 12.1811 22.0511C12.4624 21.9261 12.7592 21.8636 13.0717 21.8636C13.3189 21.8636 13.5206 21.8835 13.6768 21.9233C13.8331 21.9631 13.9496 22 14.0263 22.0341L13.7365 22.9034C13.6854 22.8864 13.6143 22.8651 13.5234 22.8395C13.4354 22.8139 13.3189 22.8011 13.174 22.8011C12.8416 22.8011 12.6016 22.8849 12.4538 23.0526C12.3089 23.2202 12.2365 23.4659 12.2365 23.7898V31H11.2308ZM17.5014 31.1364C16.9105 31.1364 16.392 30.9957 15.946 30.7145C15.5028 30.4332 15.1562 30.0398 14.9062 29.5341C14.6591 29.0284 14.5355 28.4375 14.5355 27.7614C14.5355 27.0795 14.6591 26.4844 14.9062 25.9759C15.1562 25.4673 15.5028 25.0724 15.946 24.7912C16.392 24.5099 16.9105 24.3693 17.5014 24.3693C18.0923 24.3693 18.6094 24.5099 19.0526 24.7912C19.4986 25.0724 19.8452 25.4673 20.0923 25.9759C20.3423 26.4844 20.4673 27.0795 20.4673 27.7614C20.4673 28.4375 20.3423 29.0284 20.0923 29.5341C19.8452 30.0398 19.4986 30.4332 19.0526 30.7145C18.6094 30.9957 18.0923 31.1364 17.5014 31.1364ZM17.5014 30.233C17.9503 30.233 18.3196 30.1179 18.6094 29.8878C18.8991 29.6577 19.1136 29.3551 19.2528 28.9801C19.392 28.6051 19.4616 28.1989 19.4616 27.7614C19.4616 27.3239 19.392 26.9162 19.2528 26.5384C19.1136 26.1605 18.8991 25.8551 18.6094 25.6222C18.3196 25.3892 17.9503 25.2727 17.5014 25.2727C17.0526 25.2727 16.6832 25.3892 16.3935 25.6222C16.1037 25.8551 15.8892 26.1605 15.75 26.5384C15.6108 26.9162 15.5412 27.3239 15.5412 27.7614C15.5412 28.1989 15.6108 28.6051 15.75 28.9801C15.8892 29.3551 16.1037 29.6577 16.3935 29.8878C16.6832 30.1179 17.0526 30.233 17.5014 30.233ZM27.0309 33.3011C26.1616 33.3011 25.3931 33.1818 24.7255 32.9432C24.0579 32.7074 23.4968 32.3594 23.0423 31.8991C22.5877 31.4389 22.244 30.875 22.011 30.2074C21.7781 29.5398 21.6616 28.7756 21.6616 27.9148C21.6616 27.0824 21.7795 26.3381 22.0153 25.6818C22.2539 25.0256 22.5991 24.4688 23.0508 24.0114C23.5053 23.5511 24.0565 23.2003 24.7042 22.9588C25.3548 22.7173 26.0906 22.5966 26.9116 22.5966C27.7099 22.5966 28.4087 22.7273 29.0082 22.9886C29.6104 23.2472 30.1133 23.598 30.5167 24.0412C30.9229 24.4815 31.2269 24.9773 31.4286 25.5284C31.6332 26.0795 31.7354 26.6477 31.7354 27.233C31.7354 27.6449 31.7156 28.0625 31.6758 28.4858C31.636 28.9091 31.5522 29.2983 31.4244 29.6534C31.2965 30.0057 31.0991 30.2898 30.832 30.5057C30.5678 30.7216 30.2099 30.8295 29.7582 30.8295C29.5593 30.8295 29.3406 30.7983 29.1019 30.7358C28.8633 30.6733 28.6516 30.5696 28.467 30.4247C28.2823 30.2798 28.1729 30.0852 28.1388 29.8409H28.0877C28.0195 30.0057 27.9144 30.1619 27.7724 30.3097C27.6332 30.4574 27.4499 30.5753 27.2227 30.6634C26.9982 30.7514 26.7241 30.7898 26.4002 30.7784C26.0309 30.7642 25.7056 30.6818 25.4244 30.5312C25.1431 30.3778 24.9073 30.1705 24.717 29.9091C24.5295 29.6449 24.3874 29.3395 24.2908 28.9929C24.1971 28.6435 24.1502 28.267 24.1502 27.8636C24.1502 27.4801 24.207 27.1293 24.3207 26.8111C24.4343 26.4929 24.592 26.2145 24.7937 25.9759C24.9982 25.7372 25.2369 25.5469 25.5096 25.4048C25.7852 25.2599 26.082 25.1705 26.4002 25.1364C26.6843 25.108 26.9428 25.1207 27.1758 25.1747C27.4087 25.2259 27.6005 25.304 27.7511 25.4091C27.9016 25.5114 27.9968 25.625 28.0366 25.75H28.0877V25.2727H28.9911V29.125C28.9911 29.3636 29.0579 29.5739 29.1914 29.7557C29.3249 29.9375 29.5195 30.0284 29.7752 30.0284C30.065 30.0284 30.2866 29.929 30.44 29.7301C30.5962 29.5312 30.7028 29.2244 30.7596 28.8097C30.8192 28.3949 30.8491 27.8636 30.8491 27.2159C30.8491 26.8352 30.7965 26.4602 30.6914 26.0909C30.5891 25.7187 30.4329 25.3707 30.2227 25.0469C30.0153 24.723 29.7525 24.4375 29.4343 24.1903C29.1161 23.9432 28.7425 23.75 28.3136 23.6108C27.8874 23.4687 27.4031 23.3977 26.8604 23.3977C26.1928 23.3977 25.5948 23.5014 25.0664 23.7088C24.5408 23.9134 24.0934 24.2131 23.7241 24.608C23.3576 25 23.0778 25.4773 22.8846 26.0398C22.6942 26.5994 22.5991 27.2358 22.5991 27.9489C22.5991 28.6733 22.6942 29.3168 22.8846 29.8793C23.0778 30.4418 23.3619 30.9162 23.7369 31.3026C24.1147 31.6889 24.582 31.9815 25.1388 32.1804C25.6957 32.3821 26.3377 32.483 27.065 32.483C27.3775 32.483 27.6857 32.4531 27.9897 32.3935C28.2937 32.3338 28.5621 32.2685 28.7951 32.1974C29.0281 32.1264 29.1957 32.0739 29.2979 32.0398L29.5366 32.8239C29.3604 32.8977 29.1303 32.9716 28.8462 33.0455C28.565 33.1193 28.2638 33.1804 27.9428 33.2287C27.6246 33.277 27.3207 33.3011 27.0309 33.3011ZM26.5366 29.9091C26.9173 29.9091 27.2255 29.8324 27.4613 29.679C27.6971 29.5256 27.869 29.294 27.9769 28.9844C28.0849 28.6747 28.1388 28.2841 28.1388 27.8125C28.1388 27.3352 28.0792 26.9631 27.9599 26.696C27.8406 26.429 27.6644 26.2415 27.4315 26.1335C27.1985 26.0256 26.9116 25.9716 26.5707 25.9716C26.2468 25.9716 25.9698 26.0568 25.7397 26.2273C25.5124 26.3949 25.3377 26.6193 25.2156 26.9006C25.0962 27.179 25.0366 27.483 25.0366 27.8125C25.0366 28.1761 25.0849 28.5185 25.1815 28.8395C25.2781 29.1577 25.4357 29.4162 25.6545 29.6151C25.8732 29.8111 26.1673 29.9091 26.5366 29.9091ZM38.593 24.4545L36.1726 31H35.1499L32.7294 24.4545H33.8203L35.6271 29.6705H35.6953L37.5021 24.4545H38.593ZM42.3452 31.1364C41.7543 31.1364 41.2358 30.9957 40.7898 30.7145C40.3466 30.4332 40 30.0398 39.75 29.5341C39.5028 29.0284 39.3793 28.4375 39.3793 27.7614C39.3793 27.0795 39.5028 26.4844 39.75 25.9759C40 25.4673 40.3466 25.0724 40.7898 24.7912C41.2358 24.5099 41.7543 24.3693 42.3452 24.3693C42.9361 24.3693 43.4531 24.5099 43.8963 24.7912C44.3423 25.0724 44.6889 25.4673 44.9361 25.9759C45.1861 26.4844 45.3111 27.0795 45.3111 27.7614C45.3111 28.4375 45.1861 29.0284 44.9361 29.5341C44.6889 30.0398 44.3423 30.4332 43.8963 30.7145C43.4531 30.9957 42.9361 31.1364 42.3452 31.1364ZM42.3452 30.233C42.794 30.233 43.1634 30.1179 43.4531 29.8878C43.7429 29.6577 43.9574 29.3551 44.0966 28.9801C44.2358 28.6051 44.3054 28.1989 44.3054 27.7614C44.3054 27.3239 44.2358 26.9162 44.0966 26.5384C43.9574 26.1605 43.7429 25.8551 43.4531 25.6222C43.1634 25.3892 42.794 25.2727 42.3452 25.2727C41.8963 25.2727 41.527 25.3892 41.2372 25.6222C40.9474 25.8551 40.733 26.1605 40.5938 26.5384C40.4545 26.9162 40.3849 27.3239 40.3849 27.7614C40.3849 28.1989 40.4545 28.6051 40.5938 28.9801C40.733 29.3551 40.9474 29.6577 41.2372 29.8878C41.527 30.1179 41.8963 30.233 42.3452 30.233ZM49.5053 31.1364C48.9144 31.1364 48.396 30.9957 47.9499 30.7145C47.5067 30.4332 47.1602 30.0398 46.9102 29.5341C46.663 29.0284 46.5394 28.4375 46.5394 27.7614C46.5394 27.0795 46.663 26.4844 46.9102 25.9759C47.1602 25.4673 47.5067 25.0724 47.9499 24.7912C48.396 24.5099 48.9144 24.3693 49.5053 24.3693C50.0962 24.3693 50.6133 24.5099 51.0565 24.7912C51.5025 25.0724 51.8491 25.4673 52.0962 25.9759C52.3462 26.4844 52.4712 27.0795 52.4712 27.7614C52.4712 28.4375 52.3462 29.0284 52.0962 29.5341C51.8491 30.0398 51.5025 30.4332 51.0565 30.7145C50.6133 30.9957 50.0962 31.1364 49.5053 31.1364ZM49.5053 30.233C49.9542 30.233 50.3235 30.1179 50.6133 29.8878C50.9031 29.6577 51.1175 29.3551 51.2567 28.9801C51.396 28.6051 51.4656 28.1989 51.4656 27.7614C51.4656 27.3239 51.396 26.9162 51.2567 26.5384C51.1175 26.1605 50.9031 25.8551 50.6133 25.6222C50.3235 25.3892 49.9542 25.2727 49.5053 25.2727C49.0565 25.2727 48.6871 25.3892 48.3974 25.6222C48.1076 25.8551 47.8931 26.1605 47.7539 26.5384C47.6147 26.9162 47.5451 27.3239 47.5451 27.7614C47.5451 28.1989 47.6147 28.6051 47.7539 28.9801C47.8931 29.3551 48.1076 29.6577 48.3974 29.8878C48.6871 30.1179 49.0565 30.233 49.5053 30.233ZM56.478 31.1364C55.9325 31.1364 55.451 30.9986 55.0334 30.723C54.6158 30.4446 54.2891 30.0526 54.0533 29.5469C53.8175 29.0384 53.6996 28.4375 53.6996 27.7443C53.6996 27.0568 53.8175 26.4602 54.0533 25.9545C54.2891 25.4489 54.6172 25.0582 55.0376 24.7827C55.4581 24.5071 55.9439 24.3693 56.495 24.3693C56.9212 24.3693 57.2578 24.4403 57.505 24.5824C57.755 24.7216 57.9453 24.8807 58.076 25.0597C58.2095 25.2358 58.3132 25.3807 58.3871 25.4943H58.4723V22.2727H59.478V31H58.5064V29.9943H58.3871C58.3132 30.1136 58.2081 30.2642 58.0717 30.446C57.9354 30.625 57.7408 30.7855 57.4879 30.9276C57.2351 31.0668 56.8984 31.1364 56.478 31.1364ZM56.6143 30.233C57.0178 30.233 57.3587 30.1278 57.6371 29.9176C57.9155 29.7045 58.1271 29.4105 58.272 29.0355C58.4169 28.6577 58.4893 28.2216 58.4893 27.7273C58.4893 27.2386 58.4183 26.8111 58.2763 26.4446C58.1342 26.0753 57.924 25.7884 57.6456 25.5838C57.3672 25.3764 57.0234 25.2727 56.6143 25.2727C56.1882 25.2727 55.8331 25.3821 55.549 25.6009C55.2678 25.8168 55.0561 26.1108 54.9141 26.483C54.7749 26.8523 54.7053 27.267 54.7053 27.7273C54.7053 28.1932 54.7763 28.6165 54.9183 28.9972C55.0632 29.375 55.2763 29.6761 55.5575 29.9006C55.8416 30.1222 56.1939 30.233 56.6143 30.233ZM64.1186 31.1364C63.5277 31.1364 63.0092 30.9957 62.5632 30.7145C62.12 30.4332 61.7734 30.0398 61.5234 29.5341C61.2763 29.0284 61.1527 28.4375 61.1527 27.7614C61.1527 27.0795 61.2763 26.4844 61.5234 25.9759C61.7734 25.4673 62.12 25.0724 62.5632 24.7912C63.0092 24.5099 63.5277 24.3693 64.1186 24.3693C64.7095 24.3693 65.2266 24.5099 65.6697 24.7912C66.1158 25.0724 66.4624 25.4673 66.7095 25.9759C66.9595 26.4844 67.0845 27.0795 67.0845 27.7614C67.0845 28.4375 66.9595 29.0284 66.7095 29.5341C66.4624 30.0398 66.1158 30.4332 65.6697 30.7145C65.2266 30.9957 64.7095 31.1364 64.1186 31.1364ZM64.1186 30.233C64.5675 30.233 64.9368 30.1179 65.2266 29.8878C65.5163 29.6577 65.7308 29.3551 65.87 28.9801C66.0092 28.6051 66.0788 28.1989 66.0788 27.7614C66.0788 27.3239 66.0092 26.9162 65.87 26.5384C65.7308 26.1605 65.5163 25.8551 65.2266 25.6222C64.9368 25.3892 64.5675 25.2727 64.1186 25.2727C63.6697 25.2727 63.3004 25.3892 63.0107 25.6222C62.7209 25.8551 62.5064 26.1605 62.3672 26.5384C62.228 26.9162 62.1584 27.3239 62.1584 27.7614C62.1584 28.1989 62.228 28.6051 62.3672 28.9801C62.5064 29.3551 62.7209 29.6577 63.0107 29.8878C63.3004 30.1179 63.6697 30.233 64.1186 30.233ZM71.2788 31.1364C70.6879 31.1364 70.1694 30.9957 69.7234 30.7145C69.2802 30.4332 68.9336 30.0398 68.6836 29.5341C68.4364 29.0284 68.3129 28.4375 68.3129 27.7614C68.3129 27.0795 68.4364 26.4844 68.6836 25.9759C68.9336 25.4673 69.2802 25.0724 69.7234 24.7912C70.1694 24.5099 70.6879 24.3693 71.2788 24.3693C71.8697 24.3693 72.3867 24.5099 72.8299 24.7912C73.2759 25.0724 73.6225 25.4673 73.8697 25.9759C74.1197 26.4844 74.2447 27.0795 74.2447 27.7614C74.2447 28.4375 74.1197 29.0284 73.8697 29.5341C73.6225 30.0398 73.2759 30.4332 72.8299 30.7145C72.3867 30.9957 71.8697 31.1364 71.2788 31.1364ZM71.2788 30.233C71.7276 30.233 72.0969 30.1179 72.3867 29.8878C72.6765 29.6577 72.891 29.3551 73.0302 28.9801C73.1694 28.6051 73.239 28.1989 73.239 27.7614C73.239 27.3239 73.1694 26.9162 73.0302 26.5384C72.891 26.1605 72.6765 25.8551 72.3867 25.6222C72.0969 25.3892 71.7276 25.2727 71.2788 25.2727C70.8299 25.2727 70.4606 25.3892 70.1708 25.6222C69.881 25.8551 69.6665 26.1605 69.5273 26.5384C69.3881 26.9162 69.3185 27.3239 69.3185 27.7614C69.3185 28.1989 69.3881 28.6051 69.5273 28.9801C69.6665 29.3551 69.881 29.6577 70.1708 29.8878C70.4606 30.1179 70.8299 30.233 71.2788 30.233ZM76.5128 31.0682C76.3026 31.0682 76.1222 30.9929 75.9716 30.8423C75.821 30.6918 75.7457 30.5114 75.7457 30.3011C75.7457 30.0909 75.821 29.9105 75.9716 29.7599C76.1222 29.6094 76.3026 29.5341 76.5128 29.5341C76.723 29.5341 76.9034 29.6094 77.054 29.7599C77.2045 29.9105 77.2798 30.0909 77.2798 30.3011C77.2798 30.4403 77.2443 30.5682 77.1733 30.6847C77.1051 30.8011 77.0128 30.8949 76.8963 30.9659C76.7827 31.0341 76.6548 31.0682 76.5128 31.0682ZM81.7436 31.1364C81.13 31.1364 80.6016 30.9915 80.1584 30.7017C79.7152 30.4119 79.3743 30.0128 79.1357 29.5043C78.897 28.9957 78.7777 28.4148 78.7777 27.7614C78.7777 27.0966 78.8999 26.5099 79.1442 26.0014C79.3913 25.4901 79.7351 25.0909 80.1754 24.804C80.6186 24.5142 81.1357 24.3693 81.7266 24.3693C82.1868 24.3693 82.6016 24.4545 82.9709 24.625C83.3402 24.7955 83.6428 25.0341 83.8786 25.3409C84.1143 25.6477 84.2607 26.0057 84.3175 26.4148H83.3118C83.2351 26.1165 83.0646 25.8523 82.8004 25.6222C82.5391 25.3892 82.1868 25.2727 81.7436 25.2727C81.3516 25.2727 81.0078 25.375 80.7124 25.5795C80.4197 25.7812 80.1911 26.0668 80.0263 26.4361C79.8643 26.8026 79.7834 27.233 79.7834 27.7273C79.7834 28.233 79.8629 28.6733 80.022 29.0483C80.1839 29.4233 80.4112 29.7145 80.7038 29.9219C80.9993 30.1293 81.3459 30.233 81.7436 30.233C82.005 30.233 82.2422 30.1875 82.4553 30.0966C82.6683 30.0057 82.8487 29.875 82.9964 29.7045C83.1442 29.5341 83.2493 29.3295 83.3118 29.0909H84.3175C84.2607 29.4773 84.12 29.8253 83.8956 30.1349C83.674 30.4418 83.38 30.6861 83.0135 30.8679C82.6499 31.0469 82.2266 31.1364 81.7436 31.1364ZM88.4467 31.1364C87.8558 31.1364 87.3374 30.9957 86.8913 30.7145C86.4482 30.4332 86.1016 30.0398 85.8516 29.5341C85.6044 29.0284 85.4808 28.4375 85.4808 27.7614C85.4808 27.0795 85.6044 26.4844 85.8516 25.9759C86.1016 25.4673 86.4482 25.0724 86.8913 24.7912C87.3374 24.5099 87.8558 24.3693 88.4467 24.3693C89.0376 24.3693 89.5547 24.5099 89.9979 24.7912C90.4439 25.0724 90.7905 25.4673 91.0376 25.9759C91.2876 26.4844 91.4126 27.0795 91.4126 27.7614C91.4126 28.4375 91.2876 29.0284 91.0376 29.5341C90.7905 30.0398 90.4439 30.4332 89.9979 30.7145C89.5547 30.9957 89.0376 31.1364 88.4467 31.1364ZM88.4467 30.233C88.8956 30.233 89.2649 30.1179 89.5547 29.8878C89.8445 29.6577 90.0589 29.3551 90.1982 28.9801C90.3374 28.6051 90.407 28.1989 90.407 27.7614C90.407 27.3239 90.3374 26.9162 90.1982 26.5384C90.0589 26.1605 89.8445 25.8551 89.5547 25.6222C89.2649 25.3892 88.8956 25.2727 88.4467 25.2727C87.9979 25.2727 87.6286 25.3892 87.3388 25.6222C87.049 25.8551 86.8345 26.1605 86.6953 26.5384C86.5561 26.9162 86.4865 27.3239 86.4865 27.7614C86.4865 28.1989 86.5561 28.6051 86.6953 28.9801C86.8345 29.3551 87.049 29.6577 87.3388 29.8878C87.6286 30.1179 87.9979 30.233 88.4467 30.233ZM92.9478 31V24.4545H93.9194V25.4773H94.0046C94.141 25.1278 94.3612 24.8565 94.6651 24.6634C94.9691 24.4673 95.3342 24.3693 95.7603 24.3693C96.1921 24.3693 96.5515 24.4673 96.8384 24.6634C97.1282 24.8565 97.354 25.1278 97.516 25.4773H97.5842C97.7518 25.1392 98.0032 24.8707 98.3384 24.6719C98.6737 24.4702 99.0756 24.3693 99.5444 24.3693C100.13 24.3693 100.608 24.5526 100.98 24.919C101.353 25.2827 101.539 25.8494 101.539 26.6193V31H100.533V26.6193C100.533 26.1364 100.401 25.7912 100.137 25.5838C99.8725 25.3764 99.5614 25.2727 99.2035 25.2727C98.7433 25.2727 98.3867 25.4119 98.1339 25.6903C97.881 25.9659 97.7546 26.3153 97.7546 26.7386V31H96.7319V26.517C96.7319 26.1449 96.6112 25.8452 96.3697 25.6179C96.1282 25.3878 95.8171 25.2727 95.4364 25.2727C95.1751 25.2727 94.9308 25.3423 94.7035 25.4815C94.479 25.6207 94.2972 25.8139 94.158 26.0611C94.0217 26.3054 93.9535 26.5881 93.9535 26.9091V31H92.9478Z" fill="#858585"/>
</svg>
